<?xml version="1.0" encoding="utf-8"?>
<!-- Generator: Adobe Illustrator 19.0.0, SVG Export Plug-In . SVG Version: 6.00 Build 0)  -->
<svg version="1.1" id="Camada_1" xmlns="http://www.w3.org/2000/svg" xmlns:xlink="http://www.w3.org/1999/xlink" x="0px" y="0px"
	 viewBox="0 0 391.8 352.2" style="enable-background:new 0 0 391.8 352.2;" xml:space="preserve">
<g>
	<path d="M52.4,281.5c0,4.5,0,9,0,13.8c-6.3,0-12.6,0-19.1,0c0,18.6,0,37,0,55.5c-4.7,0-9.2,0-13.9,0c0-18.4,0-36.8,0-55.5
		c-6.5,0-12.9,0-19.3,0c0-4.7,0-9.2,0-13.8C17.4,281.5,34.9,281.5,52.4,281.5z"/>
	<path d="M296.1,311.7c0.1-0.3,0.2-0.4,0.2-0.6c0.9-3.2,0.9-3.2,4.4-3.2c1.9,0,3.9,0,6.1,0c0,0.7,0,1.3,0,1.9c0,13.1,0,26.2,0,39.2
		c0,1.6-0.5,2-2,1.9c-2.8-0.1-5.7,0-8.6,0c0-1.4,0-2.6,0-4.1c-6.1,4.7-12.7,6.2-20,4.6c-5.3-1.2-9.6-4.1-12.9-8.4
		c-6.6-8.7-6-20.9,1.2-29.1C271.3,306.5,284.8,303.2,296.1,311.7z M272,328.9c-0.5,6.1,4.2,11.6,10.5,12.2c5.9,0.5,11.2-4.4,11.7-11
		c0.5-6.2-4.2-11.7-10.4-12.2C277.7,317.3,272.6,322.2,272,328.9z"/>
	<path d="M218.1,333.4c-10.4,0-20.9,0-31.4,0c1.9,7.7,10.5,9.9,17.2,4.4c3.1,2.1,6.1,4.2,9.2,6.3c-5.8,7.8-18.6,11-28.7,4.9
		c-10.5-6.3-14.3-19.8-8.5-30.7c5.7-10.6,18.8-15,29.7-9.8C216.1,313.4,220.4,325,218.1,333.4z M186.4,325.7c6.7,0,13.4,0,20,0
		c-0.8-4.4-4.9-7.9-9.5-8.2C192.2,317.2,187.9,320.5,186.4,325.7z"/>
	<path d="M75.3,337.8c3.1,2.1,6.2,4.2,9.3,6.3c-6.2,8-19.1,11-29.2,4.6c-10.2-6.4-13.7-19.8-7.9-30.5c5.6-10.5,18.6-14.8,29.5-9.8
		c10.4,4.7,15,16.3,12.7,25c-10.4,0-20.9,0-31.5,0C60.1,341.1,68.5,343.3,75.3,337.8z M77.8,325.7c-0.5-4.3-4.9-8-9.6-8.2
		c-4.7-0.2-9.2,3.4-10.3,8.2C64.5,325.7,71.1,325.7,77.8,325.7z"/>
	<path d="M195.5,71.3c0.4,0.2,0.7,0.3,1,0.5c8.6,4.9,17.2,9.9,25.8,14.9c1.8,1.1,1.8,1.8,0,2.9c-8.4,4.8-16.7,9.7-25.1,14.5
		c-1.3,0.7-2.3,0.8-3.6,0c-8.4-4.9-16.8-9.7-25.2-14.6c-1.6-0.9-1.6-1.8,0-2.7c8.6-5,17.3-10,25.9-15
		C194.7,71.6,195.1,71.5,195.5,71.3z"/>
	<path d="M196,107c0.5,0.2,1,0.5,1.5,0.7c8.5,4.9,17,9.8,25.5,14.7c1.5,0.9,1.5,1.8,0.1,2.6c-8.6,5-17.3,10-26,15
		c-0.6,0.3-1.8,0.3-2.4-0.1c-8.5-4.8-17.1-9.8-25.6-14.7c-2-1.2-2-1.8-0.1-2.9c7.5-4.4,15.1-8.7,22.6-13c1-0.6,1.9-1.1,2.9-1.7
		C195,107.4,195.4,107.2,196,107z"/>
	<path d="M195,158.8c0,5,0,9.9,0,14.9c0,2-0.6,2.3-2.3,1.3c-8.6-5-17.2-9.9-25.7-14.9c-0.7-0.4-1.3-1.5-1.3-2.2
		c-0.1-9.8-0.1-19.7,0-29.5c0-1.9,0.8-2.3,2.4-1.4c8.7,5,17.4,10,26.1,15c0.5,0.3,0.8,1.1,0.8,1.7C195,148.7,195,153.7,195,158.8z"
		/>
	<path d="M133.6,124.2c0,4.7,0,9.5,0,14.2c0,0.8-0.4,1.5-0.6,2.3c-0.7-0.2-1.6-0.3-2.2-0.6c-8.4-4.8-16.8-9.7-25.2-14.5
		c-1-0.6-1.4-1.2-1.3-2.4c0-9.8,0-19.6,0.1-29.4c0-0.6,0.2-1.6,0.6-1.9c0.4-0.2,1.4,0.1,1.9,0.4c8.3,4.7,16.5,9.5,24.8,14.2
		c1.4,0.8,2,1.7,2,3.4C133.6,114.7,133.6,119.5,133.6,124.2z"/>
	<path d="M256.6,71.1c0.5,0.2,0.9,0.3,1.2,0.5c8.6,5,17.3,10,25.9,15c1.6,0.9,1.6,1.7,0,2.6c-8.7,5.1-17.5,10.1-26.2,15.1
		c-0.5,0.3-1.5,0.1-2.1-0.2c-4.6-2.6-9.2-5.2-13.7-7.8c-4-2.3-8-4.6-11.9-6.9c-1.8-1.1-1.9-1.8,0-2.9c6.3-3.7,12.6-7.3,18.9-10.9
		c2.3-1.3,4.5-2.6,6.8-3.9C255.8,71.5,256.2,71.3,256.6,71.1z"/>
	<path d="M256.3,35.4c0.9,0.5,1.7,0.9,2.5,1.3c8.2,4.7,16.3,9.4,24.5,14.2c1.6,0.9,1.7,1.8,0,2.7c-8.5,4.9-17.1,9.8-25.6,14.8
		c-1.4,0.8-2.3,0.3-3.4-0.3c-6.9-4-13.8-8-20.7-12c-1.4-0.8-2.8-1.6-4.2-2.4c-1.9-1.1-1.9-1.9,0-3c4.3-2.5,8.6-5,13-7.5
		c4.1-2.4,8.3-4.8,12.4-7.1C255.2,35.8,255.7,35.7,256.3,35.4z"/>
	<path d="M103.6,87.2c-0.6-0.3-1.3-0.4-1.8-0.8c-8.4-4.8-16.8-9.7-25.2-14.6c-1.8-1-1.7-1.8,0-2.8c8.4-4.9,16.8-9.7,25.2-14.6
		c1.4-0.8,2.5-0.5,3.8,0.2c8.3,4.9,16.7,9.7,25,14.5c1.6,0.9,1.6,1.6,0,2.5c-8.6,5-17.2,10-25.8,14.9
		C104.5,86.9,104.1,87,103.6,87.2z"/>
	<path d="M164.5,212.5c0,4.9,0,9.8,0,14.7c0,1.9-0.9,2.4-2.5,1.4c-8.6-5-17.2-9.9-25.7-14.9c-0.5-0.3-1.1-1.2-1.1-1.8
		c-0.1-10.1-0.1-20.3,0-30.4c0-1.6,0.6-1.9,2.1-1.1c6.7,3.9,13.5,7.8,20.2,11.6c1.7,1,3.4,2.1,5.2,3c1.4,0.7,2,1.7,1.9,3.3
		C164.4,203.1,164.5,207.8,164.5,212.5z"/>
	<path d="M193.5,71c-0.5,0.2-1.1,0.3-1.6,0.6c-5.6,3.2-11.2,6.4-16.8,9.6c-2.9,1.7-5.8,3.3-8.6,5c-1.2,0.7-2.2,0.9-3.5,0.1
		c-8.3-4.9-16.6-9.6-24.9-14.5c-2.2-1.3-2.2-2,0-3.3c8.4-4.9,16.8-9.7,25.3-14.5c0.6-0.4,1.8-0.4,2.4-0.1
		c8.6,4.9,17.1,9.8,25.7,14.8c0.6,0.3,1,0.9,1.5,1.3C193.2,70.5,193.4,70.8,193.5,71z"/>
	<path d="M104.2,215c0-4.9,0-9.8,0-14.7c0-0.6,0.2-1.5,0.7-1.9c0.3-0.2,1.2,0.1,1.7,0.4c8.5,4.9,17,9.8,25.5,14.7
		c1,0.6,1.4,1.2,1.4,2.4c0,9.8,0,19.7,0,29.5c0,2-0.8,2.4-2.5,1.5c-8.5-4.9-16.9-9.8-25.4-14.6c-1.1-0.6-1.6-1.4-1.6-2.8
		C104.3,224.7,104.2,219.8,104.2,215z"/>
	<path d="M258.5,194.7c0-4.8,0-9.7,0-14.5c0-1.1,0.3-1.8,1.3-2.4c8.6-4.9,17.1-9.9,25.6-14.8c1.8-1,2.5-0.7,2.5,1.3
		c0,9.9,0,19.7,0,29.6c0,1.1-0.3,1.9-1.3,2.4c-7.5,4.3-14.9,8.6-22.4,12.9c-1.1,0.6-2.1,1.2-3.2,1.8c-1.9,1-2.6,0.6-2.6-1.6
		C258.5,204.5,258.5,199.6,258.5,194.7z"/>
	<path d="M257.1,196.5c0,5,0,9.9,0,14.9c0,1-0.3,1.6-1.2,2.1c-8.7,5-17.3,10-26,14.9c-1.4,0.8-2.2,0.3-2.2-1.3c0-10,0-20,0.1-30.1
		c0-0.7,0.6-1.7,1.3-2.1c8.5-5,17-9.9,25.5-14.7c2-1.2,2.5-0.8,2.5,1.5C257.1,186.7,257.1,191.6,257.1,196.5z"/>
	<path d="M257.1,125.5c0,5,0,9.9,0,14.9c0,1-0.3,1.6-1.2,2.1c-8.6,4.9-17.2,9.9-25.8,14.9c-1.6,0.9-2.3,0.4-2.3-1.4
		c0-9.8,0-19.7,0-29.5c0-1.1,0.3-1.7,1.3-2.3c8.7-5,17.5-10.1,26.2-15.1c1.2-0.7,1.9-0.2,1.9,1.3
		C257.1,115.3,257.1,120.4,257.1,125.5z"/>
	<path d="M195,194.3c0,5,0,9.9,0,14.9c0,0.5-0.2,1.4-0.5,1.6c-0.5,0.2-1.3,0-1.8-0.3c-8.6-4.9-17.1-9.9-25.7-14.8
		c-0.9-0.5-1.4-1.1-1.4-2.2c0-9.9,0-19.8,0-29.7c0-1.9,0.8-2.3,2.3-1.4c8.6,4.9,17.1,9.9,25.7,14.8c1,0.6,1.4,1.2,1.4,2.4
		C195,184.4,195,189.4,195,194.3z"/>
	<path d="M194.9,281.2c-3,0.8-4.9-1.2-7-2.4c-7-3.9-13.8-8-20.8-11.9c-1.1-0.6-1.5-1.4-1.5-2.7c0-9.7,0-19.5,0-29.2
		c0-2.1,0.7-2.5,2.5-1.4c8.6,4.9,17.1,9.8,25.6,14.8c0.5,0.3,1.1,1.2,1.1,1.8c0.1,10.1,0,20.3,0,30.4
		C195,280.7,194.9,280.9,194.9,281.2z"/>
	<path d="M194.7,0c0.5,0.2,0.9,0.3,1.3,0.5c8.6,5,17.2,10,25.8,15c1.4,0.8,1.4,1.5,0,2.4c-8.5,5-17,9.9-25.4,14.9
		c-1.2,0.7-2.1,0.7-3.2,0c-4.4-2.6-8.8-5.1-13.3-7.7c-4-2.3-8-4.6-12-6.9c-1.9-1.1-2-1.8-0.2-2.9c8.5-4.9,17-9.8,25.5-14.7
		C193.6,0.4,194.2,0.2,194.7,0z"/>
	<path d="M93.6,344.6c2.9-2.8,5.6-5.4,8.2-7.9c1.6,1.1,3.2,2.5,4.9,3.6c2.3,1.4,4.7,2.2,7.5,1.7c1.6-0.3,2.8-1.1,3.1-2.8
		c0.3-1.7-0.3-3.2-1.8-4c-1.9-1-3.9-1.6-5.8-2.4c-1.9-0.8-3.9-1.4-5.7-2.3c-4.1-2-6.6-5.1-6.8-9.8c-0.2-5.1,1.9-8.9,6.2-11.6
		c3.5-2.2,7.4-2.5,11.4-2.3c5.4,0.2,10.2,2.1,14.7,5.1c-2,3.1-3.8,6-5.7,8.9c-2.4-1.2-4.5-2.5-6.8-3.4c-1.5-0.6-3.2-0.7-4.9-0.6
		c-1.7,0.1-2.8,1.6-3,3.3c-0.1,1.6,0.9,2.5,2.2,3c2.3,0.9,4.7,1.6,7.1,2.5c1.8,0.7,3.5,1.3,5.1,2.3c8.1,4.9,8.6,15.1,1.1,20.9
		c-3.7,2.9-8,3.8-12.6,3.5c-6.5-0.4-12.4-2.4-17.4-6.8C94.4,345.1,94.1,344.9,93.6,344.6z"/>
	<path d="M169.9,311.8c-2,3.1-3.9,6-5.7,8.9c-2.4-1.2-4.5-2.5-6.8-3.4c-1.5-0.6-3.2-0.7-4.9-0.6c-1.7,0.1-2.8,1.7-3,3.3
		c-0.1,1.6,0.9,2.5,2.2,3c2.3,0.9,4.7,1.6,7.1,2.4c1.8,0.7,3.5,1.3,5.1,2.3c8.1,4.9,8.6,15,1.2,20.8c-3.4,2.6-7.2,3.7-11.5,3.6
		c-6.9-0.2-13.1-2.2-18.4-6.7c-0.3-0.3-0.7-0.6-1.1-0.9c2.8-2.6,5.6-5.2,8.3-7.7c0.1-0.3,0.2-0.7,0.2-1c0.2,0.5,0.3,1.2,0.7,1.5
		c2.5,2.4,5.4,4.1,8.9,4.6c0.9,0.1,1.8,0,2.6-0.1c1.5-0.3,2.6-1.2,2.9-2.8c0.3-1.6-0.2-2.9-1.6-3.8c-1.3-0.8-2.7-1.3-4.1-1.9
		c-2.6-1-5.2-1.8-7.8-3c-4.2-1.9-6.6-5.1-6.8-9.8c-0.2-5.1,1.9-8.9,6.2-11.6c4-2.5,8.4-2.6,12.9-2.2
		C161.5,307.2,165.8,309.1,169.9,311.8z"/>
	<path d="M102.8,142.5c0,4.8,0,9.7,0,14.5c0,2.1-0.7,2.5-2.4,1.5c-5.4-3.1-10.7-6.2-16.1-9.4c-3.1-1.8-6.2-3.7-9.4-5.4
		c-0.9-0.5-1.2-1-1.2-1.9c0-10.1,0-20.1,0-30.2c0-1.8,0.5-2.1,2-1.2c8.5,4.9,17,9.8,25.5,14.7c1.2,0.7,1.6,1.4,1.5,2.8
		C102.8,132.7,102.8,137.6,102.8,142.5z"/>
	<path d="M226.3,178.3c0,4.9,0,9.9,0,14.8c0,1.1-0.4,1.8-1.3,2.3c-8.6,4.9-17.2,9.9-25.8,14.9c-1.5,0.8-2,0.5-2-1.2
		c0-10.1,0-20.1,0-30.2c0-0.7,0.6-1.7,1.3-2c8.3-4.9,16.7-9.7,25-14.5c0.3-0.2,0.7-0.4,1-0.5c1.1-0.5,1.8-0.3,1.8,1.2
		C226.3,168.1,226.3,173.2,226.3,178.3z"/>
	<path d="M318.2,74.1c0,1.1,0,2,0,2.9c0,9.6,0,19.1,0,28.7c0,1.3-0.3,1.9-1.5,2.6c-8.5,4.8-16.9,9.7-25.4,14.6c-1.4,0.8-2,0.4-2-1.2
		c0-10.1,0-20.2,0-30.4c0-0.6,0.5-1.4,1-1.6c8.7-5.1,17.3-10.1,26-15.1C316.8,74.2,317.5,74.2,318.2,74.1z"/>
	<path d="M318.2,180.3c0,1,0,1.4,0,1.8c0,10.1,0,20.2,0,30.4c0,1.1-0.4,1.7-1.3,2.2c-8.4,4.8-16.8,9.7-25.2,14.5
		c-1.7,1-2.4,0.6-2.4-1.4c0-9.9,0-19.8,0-29.7c0-1.1,0.4-1.7,1.3-2.2c8.3-4.8,16.6-9.6,25-14.3C316.3,181.1,317.1,180.8,318.2,180.3
		z"/>
	<path d="M197.2,281.6c0-1,0-1.5,0-2c0-9.8,0-19.6,0-29.4c0-1.1,0.2-1.7,1.3-2.3c8.5-4.8,16.9-9.7,25.4-14.6c0.6-0.3,1.4-0.5,2-0.4
		c0.3,0.1,0.5,1.1,0.5,1.7c0,9.8,0,19.7,0,29.5c0,1.2-0.4,1.9-1.4,2.5c-8.1,4.6-16.2,9.4-24.4,14
		C199.7,281.1,198.5,281.2,197.2,281.6z"/>
	<path d="M73.8,197.7c0-5.1,0-10.2,0-15.4c0-1.4,0.6-1.8,1.8-1.1c8.7,5,17.3,10,26,15c1,0.5,1.3,1.2,1.3,2.2c0,9.9,0,19.8,0,29.7
		c0,2-0.6,2.3-2.3,1.4c-8.7-5-17.4-10-26.1-15c-0.4-0.2-0.7-1.1-0.7-1.6C73.7,207.8,73.8,202.7,73.8,197.7z"/>
	<path d="M382,350.8c-4.3,0-8.4,0-12.6,0c0-10.3,0-20.6,0-31.1c-3.1,0-5.9,0-8.9,0c0-3.9,0-7.7,0-11.6c2.9,0,5.7,0,8.8,0
		c0-5.4,0-10.6,0-16c4.3,0,8.4,0,12.6,0c0,5.3,0,10.5,0,15.8c3.4,0,6.6,0,9.9,0c0,3.9,0,7.7,0,11.6c-3.2,0-6.4,0-9.8,0
		C382,330.1,382,340.4,382,350.8z"/>
	<path d="M352.9,311.3c-1.9,3.3-3.8,6.6-5.7,10.1c-2.8-2.7-6.1-3.8-9.8-3.3c-3.1,0.4-5.8,1.8-7.9,4.2c-3.6,4.2-3.5,10.4,0.3,14.5
		c4.6,5,11,5.4,17.5,1c1.8,3.2,3.6,6.5,5.4,9.7c-6.7,5.7-20.7,7.1-30.2-1.4c-9.2-8.3-10.3-21.9-2.5-31
		C328.9,304.7,344.1,304.5,352.9,311.3z"/>
	<path d="M237.7,350.8c-0.5,0-0.8,0.1-1.2,0.1c-3.7,0-7.3,0-11.1,0c0-14.3,0-28.5,0-42.8c3,0,6,0,9,0c0.3,0,0.8,0.5,0.9,0.9
		c0.5,1.1,0.9,2.3,1.3,3.5c6.4-6.2,13.8-6.5,21.9-4.5c-1.7,3.8-3.3,7.4-4.7,10.7c-2.5-0.1-4.8-0.6-7.1-0.3c-5.2,0.6-9,5.3-9,10.5
		C237.7,336.2,237.7,343.4,237.7,350.8z"/>
</g>
</svg>
