<?xml version="1.0" encoding="utf-8"?>
<!-- Generator: Adobe Illustrator 19.0.0, SVG Export Plug-In . SVG Version: 6.00 Build 0)  -->
<svg version="1.1" id="Camada_1" xmlns="http://www.w3.org/2000/svg" xmlns:xlink="http://www.w3.org/1999/xlink" x="0px" y="0px"
	 viewBox="0 0 391.8 292.2" style="enable-background:new 0 0 391.8 352.2;" xml:space="preserve">
 <style type="text/css">
	.st0{fill:#110F0D;}
</style>
<g>
	<path class="st0" d="M195.5,71.3c0.4,0.2,0.7,0.3,1,0.5c8.6,4.9,17.2,9.9,25.8,14.9c1.8,1.1,1.8,1.8,0,2.9c-8.4,4.8-16.7,9.7-25.1,14.5
		c-1.3,0.7-2.3,0.8-3.6,0c-8.4-4.9-16.8-9.7-25.2-14.6c-1.6-0.9-1.6-1.8,0-2.7c8.6-5,17.3-10,25.9-15
		C194.7,71.6,195.1,71.5,195.5,71.3z"/>
	<path class="st0" d="M196,107c0.5,0.2,1,0.5,1.5,0.7c8.5,4.9,17,9.8,25.5,14.7c1.5,0.9,1.5,1.8,0.1,2.6c-8.6,5-17.3,10-26,15
		c-0.6,0.3-1.8,0.3-2.4-0.1c-8.5-4.8-17.1-9.8-25.6-14.7c-2-1.2-2-1.8-0.1-2.9c7.5-4.4,15.1-8.7,22.6-13c1-0.6,1.9-1.1,2.9-1.7
		C195,107.4,195.4,107.2,196,107z"/>
	<path class="st0" d="M195,158.8c0,5,0,9.9,0,14.9c0,2-0.6,2.3-2.3,1.3c-8.6-5-17.2-9.9-25.7-14.9c-0.7-0.4-1.3-1.5-1.3-2.2
		c-0.1-9.8-0.1-19.7,0-29.5c0-1.9,0.8-2.3,2.4-1.4c8.7,5,17.4,10,26.1,15c0.5,0.3,0.8,1.1,0.8,1.7C195,148.7,195,153.7,195,158.8z"
		/>
	<path class="st0" d="M133.6,124.2c0,4.7,0,9.5,0,14.2c0,0.8-0.4,1.5-0.6,2.3c-0.7-0.2-1.6-0.3-2.2-0.6c-8.4-4.8-16.8-9.7-25.2-14.5
		c-1-0.6-1.4-1.2-1.3-2.4c0-9.8,0-19.6,0.1-29.4c0-0.6,0.2-1.6,0.6-1.9c0.4-0.2,1.4,0.1,1.9,0.4c8.3,4.7,16.5,9.5,24.8,14.2
		c1.4,0.8,2,1.7,2,3.4C133.6,114.7,133.6,119.5,133.6,124.2z"/>
	<path class="st0" d="M256.6,71.1c0.5,0.2,0.9,0.3,1.2,0.5c8.6,5,17.3,10,25.9,15c1.6,0.9,1.6,1.7,0,2.6c-8.7,5.1-17.5,10.1-26.2,15.1
		c-0.5,0.3-1.5,0.1-2.1-0.2c-4.6-2.6-9.2-5.2-13.7-7.8c-4-2.3-8-4.6-11.9-6.9c-1.8-1.1-1.9-1.8,0-2.9c6.3-3.7,12.6-7.3,18.9-10.9
		c2.3-1.3,4.5-2.6,6.8-3.9C255.8,71.5,256.2,71.3,256.6,71.1z"/>
	<path class="st0" d="M256.3,35.4c0.9,0.5,1.7,0.9,2.5,1.3c8.2,4.7,16.3,9.4,24.5,14.2c1.6,0.9,1.7,1.8,0,2.7c-8.5,4.9-17.1,9.8-25.6,14.8
		c-1.4,0.8-2.3,0.3-3.4-0.3c-6.9-4-13.8-8-20.7-12c-1.4-0.8-2.8-1.6-4.2-2.4c-1.9-1.1-1.9-1.9,0-3c4.3-2.5,8.6-5,13-7.5
		c4.1-2.4,8.3-4.8,12.4-7.1C255.2,35.8,255.7,35.7,256.3,35.4z"/>
	<path class="st0" d="M103.6,87.2c-0.6-0.3-1.3-0.4-1.8-0.8c-8.4-4.8-16.8-9.7-25.2-14.6c-1.8-1-1.7-1.8,0-2.8c8.4-4.9,16.8-9.7,25.2-14.6
		c1.4-0.8,2.5-0.5,3.8,0.2c8.3,4.9,16.7,9.7,25,14.5c1.6,0.9,1.6,1.6,0,2.5c-8.6,5-17.2,10-25.8,14.9
		C104.5,86.9,104.1,87,103.6,87.2z"/>
	<path class="st0" d="M164.5,212.5c0,4.9,0,9.8,0,14.7c0,1.9-0.9,2.4-2.5,1.4c-8.6-5-17.2-9.9-25.7-14.9c-0.5-0.3-1.1-1.2-1.1-1.8
		c-0.1-10.1-0.1-20.3,0-30.4c0-1.6,0.6-1.9,2.1-1.1c6.7,3.9,13.5,7.8,20.2,11.6c1.7,1,3.4,2.1,5.2,3c1.4,0.7,2,1.7,1.9,3.3
		C164.4,203.1,164.5,207.8,164.5,212.5z"/>
	<path class="st0" d="M193.5,71c-0.5,0.2-1.1,0.3-1.6,0.6c-5.6,3.2-11.2,6.4-16.8,9.6c-2.9,1.7-5.8,3.3-8.6,5c-1.2,0.7-2.2,0.9-3.5,0.1
		c-8.3-4.9-16.6-9.6-24.9-14.5c-2.2-1.3-2.2-2,0-3.3c8.4-4.9,16.8-9.7,25.3-14.5c0.6-0.4,1.8-0.4,2.4-0.1
		c8.6,4.9,17.1,9.8,25.7,14.8c0.6,0.3,1,0.9,1.5,1.3C193.2,70.5,193.4,70.8,193.5,71z"/>
	<path class="st0" d="M104.2,215c0-4.9,0-9.8,0-14.7c0-0.6,0.2-1.5,0.7-1.9c0.3-0.2,1.2,0.1,1.7,0.4c8.5,4.9,17,9.8,25.5,14.7
		c1,0.6,1.4,1.2,1.4,2.4c0,9.8,0,19.7,0,29.5c0,2-0.8,2.4-2.5,1.5c-8.5-4.9-16.9-9.8-25.4-14.6c-1.1-0.6-1.6-1.4-1.6-2.8
		C104.3,224.7,104.2,219.8,104.2,215z"/>
	<path class="st0" d="M258.5,194.7c0-4.8,0-9.7,0-14.5c0-1.1,0.3-1.8,1.3-2.4c8.6-4.9,17.1-9.9,25.6-14.8c1.8-1,2.5-0.7,2.5,1.3
		c0,9.9,0,19.7,0,29.6c0,1.1-0.3,1.9-1.3,2.4c-7.5,4.3-14.9,8.6-22.4,12.9c-1.1,0.6-2.1,1.2-3.2,1.8c-1.9,1-2.6,0.6-2.6-1.6
		C258.5,204.5,258.5,199.6,258.5,194.7z"/>
	<path class="st0" d="M257.1,196.5c0,5,0,9.9,0,14.9c0,1-0.3,1.6-1.2,2.1c-8.7,5-17.3,10-26,14.9c-1.4,0.8-2.2,0.3-2.2-1.3c0-10,0-20,0.1-30.1
		c0-0.7,0.6-1.7,1.3-2.1c8.5-5,17-9.9,25.5-14.7c2-1.2,2.5-0.8,2.5,1.5C257.1,186.7,257.1,191.6,257.1,196.5z"/>
	<path class="st0" d="M257.1,125.5c0,5,0,9.9,0,14.9c0,1-0.3,1.6-1.2,2.1c-8.6,4.9-17.2,9.9-25.8,14.9c-1.6,0.9-2.3,0.4-2.3-1.4
		c0-9.8,0-19.7,0-29.5c0-1.1,0.3-1.7,1.3-2.3c8.7-5,17.5-10.1,26.2-15.1c1.2-0.7,1.9-0.2,1.9,1.3
		C257.1,115.3,257.1,120.4,257.1,125.5z"/>
	<path class="st0" d="M195,194.3c0,5,0,9.9,0,14.9c0,0.5-0.2,1.4-0.5,1.6c-0.5,0.2-1.3,0-1.8-0.3c-8.6-4.9-17.1-9.9-25.7-14.8
		c-0.9-0.5-1.4-1.1-1.4-2.2c0-9.9,0-19.8,0-29.7c0-1.9,0.8-2.3,2.3-1.4c8.6,4.9,17.1,9.9,25.7,14.8c1,0.6,1.4,1.2,1.4,2.4
		C195,184.4,195,189.4,195,194.3z"/>
	<path class="st0" d="M194.9,281.2c-3,0.8-4.9-1.2-7-2.4c-7-3.9-13.8-8-20.8-11.9c-1.1-0.6-1.5-1.4-1.5-2.7c0-9.7,0-19.5,0-29.2
		c0-2.1,0.7-2.5,2.5-1.4c8.6,4.9,17.1,9.8,25.6,14.8c0.5,0.3,1.1,1.2,1.1,1.8c0.1,10.1,0,20.3,0,30.4
		C195,280.7,194.9,280.9,194.9,281.2z"/>
	<path class="st0" d="M194.7,0c0.5,0.2,0.9,0.3,1.3,0.5c8.6,5,17.2,10,25.8,15c1.4,0.8,1.4,1.5,0,2.4c-8.5,5-17,9.9-25.4,14.9
		c-1.2,0.7-2.1,0.7-3.2,0c-4.4-2.6-8.8-5.1-13.3-7.7c-4-2.3-8-4.6-12-6.9c-1.9-1.1-2-1.8-0.2-2.9c8.5-4.9,17-9.8,25.5-14.7
		C193.6,0.4,194.2,0.2,194.7,0z"/>
	<path class="st0" d="M102.8,142.5c0,4.8,0,9.7,0,14.5c0,2.1-0.7,2.5-2.4,1.5c-5.4-3.1-10.7-6.2-16.1-9.4c-3.1-1.8-6.2-3.7-9.4-5.4
		c-0.9-0.5-1.2-1-1.2-1.9c0-10.1,0-20.1,0-30.2c0-1.8,0.5-2.1,2-1.2c8.5,4.9,17,9.8,25.5,14.7c1.2,0.7,1.6,1.4,1.5,2.8
		C102.8,132.7,102.8,137.6,102.8,142.5z"/>
	<path class="st0" d="M226.3,178.3c0,4.9,0,9.9,0,14.8c0,1.1-0.4,1.8-1.3,2.3c-8.6,4.9-17.2,9.9-25.8,14.9c-1.5,0.8-2,0.5-2-1.2
		c0-10.1,0-20.1,0-30.2c0-0.7,0.6-1.7,1.3-2c8.3-4.9,16.7-9.7,25-14.5c0.3-0.2,0.7-0.4,1-0.5c1.1-0.5,1.8-0.3,1.8,1.2
		C226.3,168.1,226.3,173.2,226.3,178.3z"/>
	<path class="st0" d="M318.2,74.1c0,1.1,0,2,0,2.9c0,9.6,0,19.1,0,28.7c0,1.3-0.3,1.9-1.5,2.6c-8.5,4.8-16.9,9.7-25.4,14.6c-1.4,0.8-2,0.4-2-1.2
		c0-10.1,0-20.2,0-30.4c0-0.6,0.5-1.4,1-1.6c8.7-5.1,17.3-10.1,26-15.1C316.8,74.2,317.5,74.2,318.2,74.1z"/>
	<path class="st0" d="M318.2,180.3c0,1,0,1.4,0,1.8c0,10.1,0,20.2,0,30.4c0,1.1-0.4,1.7-1.3,2.2c-8.4,4.8-16.8,9.7-25.2,14.5
		c-1.7,1-2.4,0.6-2.4-1.4c0-9.9,0-19.8,0-29.7c0-1.1,0.4-1.7,1.3-2.2c8.3-4.8,16.6-9.6,25-14.3C316.3,181.1,317.1,180.8,318.2,180.3
		z"/>
	<path class="st0" d="M197.2,281.6c0-1,0-1.5,0-2c0-9.8,0-19.6,0-29.4c0-1.1,0.2-1.7,1.3-2.3c8.5-4.8,16.9-9.7,25.4-14.6c0.6-0.3,1.4-0.5,2-0.4
		c0.3,0.1,0.5,1.1,0.5,1.7c0,9.8,0,19.7,0,29.5c0,1.2-0.4,1.9-1.4,2.5c-8.1,4.6-16.2,9.4-24.4,14
		C199.7,281.1,198.5,281.2,197.2,281.6z"/>
	<path class="st0" d="M73.8,197.7c0-5.1,0-10.2,0-15.4c0-1.4,0.6-1.8,1.8-1.1c8.7,5,17.3,10,26,15c1,0.5,1.3,1.2,1.3,2.2c0,9.9,0,19.8,0,29.7
		c0,2-0.6,2.3-2.3,1.4c-8.7-5-17.4-10-26.1-15c-0.4-0.2-0.7-1.1-0.7-1.6C73.7,207.8,73.8,202.7,73.8,197.7z"/>
</g>
</svg>
