<?xml version="1.0" standalone="no"?>
<!DOCTYPE svg PUBLIC "-//W3C//DTD SVG 20010904//EN"
 "http://www.w3.org/TR/2001/REC-SVG-20010904/DTD/svg10.dtd">
<svg version="1.0" xmlns="http://www.w3.org/2000/svg"
 width="800.000000pt" height="800.000000pt" viewBox="0 0 800.000000 800.000000"
 preserveAspectRatio="xMidYMid meet">
<metadata>
Created by potrace 1.11, written by Peter Selinger 2001-2013
</metadata>
<g transform="translate(0.000000,800.000000) scale(0.100000,-0.100000)"
fill="#000000" stroke="none">
<path d="M3920 7951 c-39 -12 -71 -30 -420 -234 -179 -104 -336 -200 -350
-212 -14 -13 -41 -30 -60 -38 -54 -22 -742 -426 -770 -452 -14 -12 -45 -33
-70 -45 -89 -44 -736 -424 -761 -447 -14 -12 -29 -23 -34 -23 -5 0 -188 -105
-408 -232 -416 -243 -427 -251 -427 -317 0 -16 -9 -45 -20 -64 -20 -33 -20
-52 -17 -1970 l2 -1937 25 -24 c31 -30 754 -454 790 -463 14 -3 57 -25 95 -48
119 -72 668 -391 712 -414 23 -11 49 -21 57 -21 8 0 34 -13 58 -29 83 -55 740
-434 771 -445 18 -6 203 -111 412 -232 209 -122 389 -226 400 -231 22 -11 116
-26 157 -25 37 1 65 16 463 249 395 231 361 212 436 246 56 26 689 391 741
428 15 10 33 19 41 19 8 0 45 16 83 37 97 51 660 380 711 414 23 16 48 29 55
29 20 0 103 46 458 252 179 104 336 200 350 214 l25 24 3 1928 c1 1060 0 1938
-3 1950 -3 13 -18 35 -32 48 -22 20 -27 33 -25 67 5 84 26 69 -642 454 -98 57
-186 103 -194 103 -9 0 -27 11 -41 23 -15 13 -181 114 -371 224 -358 208 -421
243 -441 243 -6 0 -17 7 -23 15 -11 14 -651 392 -746 440 -27 14 -56 25 -63
25 -8 0 -22 9 -32 20 -22 24 -713 428 -763 446 -41 14 -94 16 -132 5z m1268
-772 c202 -117 375 -220 386 -229 23 -22 17 -32 -37 -62 -23 -14 -191 -111
-374 -216 -183 -106 -337 -192 -343 -192 -13 0 -739 417 -760 436 -12 12 -12
16 1 30 13 12 744 441 757 443 2 1 168 -94 370 -210z m-1660 -10 c202 -116
374 -217 382 -225 13 -12 13 -16 0 -28 -24 -24 -744 -436 -761 -436 -16 0
-697 389 -746 427 -25 19 -26 23 -13 36 21 21 742 436 758 437 8 0 179 -95
380 -211z m841 -486 c207 -119 379 -222 383 -227 4 -6 6 -15 5 -21 -4 -11
-746 -443 -764 -444 -15 -1 -755 426 -765 442 -4 6 -1 18 7 26 11 11 743 439
754 440 2 1 173 -97 380 -216z m-1663 -11 c208 -121 379 -223 381 -228 1 -5
-1 -14 -5 -20 -4 -5 -177 -108 -385 -228 l-377 -218 -385 222 c-217 125 -385
228 -385 236 0 7 48 42 107 76 385 225 650 376 659 377 6 1 182 -97 390 -217z
m2514 -481 c206 -119 376 -224 378 -232 2 -12 -107 -79 -382 -238 l-385 -222
-368 212 c-202 116 -376 219 -387 229 -18 18 -18 18 1 35 32 27 737 433 753
434 8 0 184 -98 390 -218z m1660 9 c201 -116 371 -217 379 -225 13 -13 13 -17
1 -30 -24 -23 -743 -435 -760 -435 -8 1 -181 97 -385 215 -302 175 -370 218
-370 235 0 17 68 60 370 235 204 118 377 214 386 215 8 0 179 -95 379 -210z
m-4514 -299 c5 -5 164 -98 354 -206 190 -109 354 -206 365 -216 17 -17 18 -21
5 -33 -19 -18 -728 -427 -751 -433 -16 -5 -735 401 -769 433 -13 12 -13 16 0
28 28 28 745 436 766 436 11 0 24 -4 30 -9z m-1280 -282 l384 -221 0 -445 c0
-384 -2 -444 -15 -449 -9 -4 -171 84 -395 212 l-380 219 0 446 c0 403 2 459
18 459 3 0 177 -100 388 -221z m2470 -408 c267 -154 379 -224 379 -236 0 -18
-13 -26 -497 -304 l-267 -153 -380 218 c-209 121 -382 224 -385 230 -2 6 -1
15 2 21 7 10 752 443 763 443 4 0 177 -98 385 -219z m1638 23 c414 -239 418
-241 414 -260 -2 -7 -174 -113 -383 -233 l-379 -219 -46 24 c-25 13 -196 110
-380 217 -239 138 -336 200 -338 214 -2 15 64 58 370 235 205 119 379 217 387
217 7 1 167 -87 355 -195z m1301 -344 l0 -445 -375 -217 c-206 -120 -384 -216
-395 -215 -20 2 -20 10 -23 444 l-2 442 23 16 c115 75 736 424 752 422 20 -2
20 -9 20 -447z m-3915 -112 c96 -55 264 -152 373 -215 l197 -114 0 -439 c0
-366 -2 -439 -14 -449 -12 -10 -86 29 -383 200 -202 116 -376 220 -385 231
-17 19 -18 54 -18 440 0 430 3 467 38 453 9 -3 96 -51 192 -107z m4750 -387
l0 -446 -372 -214 c-205 -118 -381 -215 -393 -215 -20 -1 -20 3 -23 440 -2
399 -1 443 14 455 40 34 750 436 761 432 10 -4 13 -98 13 -452z m-2522 -3 c14
-14 18 -864 4 -885 -10 -16 -750 -443 -767 -443 -7 0 -16 7 -19 16 -3 9 -6
209 -6 445 l0 430 52 32 c69 43 712 415 719 416 3 1 10 -4 17 -11z m-2882
-217 l379 -219 3 -440 c2 -373 0 -441 -12 -451 -12 -10 -76 23 -343 177 -180
104 -346 200 -368 212 -82 48 -75 2 -75 485 0 423 2 455 31 455 3 0 177 -99
385 -219z m4568 183 c3 -9 6 -209 6 -445 l0 -429 -37 -24 c-44 -28 -663 -386
-709 -409 -27 -14 -34 -14 -43 -3 -8 9 -10 141 -9 451 l3 438 375 218 c206
120 382 218 391 218 9 1 20 -6 23 -15z m-3738 -649 c197 -115 367 -213 377
-219 16 -10 17 -40 15 -456 -3 -441 -3 -445 -23 -444 -22 0 -755 419 -767 438
-4 6 -8 201 -8 434 0 421 4 470 34 459 7 -3 174 -98 372 -212z m2894 176 c6
-13 10 -169 10 -439 0 -385 -1 -421 -17 -440 -28 -31 -752 -445 -769 -438 -12
5 -14 68 -12 451 l3 446 380 220 c209 120 383 219 387 219 4 0 12 -9 18 -19z
m-4596 -188 c188 -108 358 -207 379 -220 l37 -23 -2 -443 c-3 -404 -4 -442
-20 -445 -9 -2 -186 94 -392 214 l-376 216 0 449 c0 415 1 449 17 449 9 0 170
-88 357 -197z m6276 -271 l0 -448 -372 -215 c-204 -118 -381 -214 -392 -214
-21 0 -21 3 -24 442 l-2 441 27 20 c23 16 477 279 673 391 98 55 90 93 90
-417z m-5443 -200 c180 -104 346 -200 368 -213 22 -13 43 -28 47 -34 4 -5 8
-204 8 -441 0 -370 -2 -433 -15 -444 -12 -10 -79 25 -392 206 -208 119 -381
222 -385 228 -4 6 -8 205 -8 442 0 438 2 463 37 450 7 -3 160 -90 340 -194z
m1714 -968 c206 -119 377 -221 381 -227 4 -7 8 -206 8 -443 0 -361 -2 -433
-14 -443 -12 -10 -86 29 -383 200 -202 117 -376 219 -385 227 -17 14 -18 48
-18 443 0 235 3 434 6 443 3 9 12 16 19 16 6 0 180 -97 386 -216z m1213 180
c3 -9 6 -208 6 -444 l0 -429 -27 -19 c-88 -60 -722 -416 -743 -417 l-25 0 0
444 0 445 375 217 c206 120 382 218 391 218 9 1 20 -6 23 -15z m1674 -16 c9
-9 12 -121 12 -442 0 -237 -4 -436 -8 -442 -5 -9 -637 -378 -740 -433 -52 -28
-52 -26 -52 444 0 399 1 433 18 447 18 16 743 437 753 438 3 0 10 -5 17 -12z
m-3718 -666 l375 -217 3 -443 c3 -495 5 -476 -67 -436 -216 121 -709 410 -718
422 -10 12 -13 115 -13 438 0 232 3 429 6 438 3 9 14 16 23 16 9 0 185 -98
391 -218z m2884 182 c3 -9 6 -206 6 -439 0 -356 -2 -426 -14 -438 -8 -8 -169
-104 -358 -212 -189 -109 -355 -205 -369 -213 -14 -9 -33 -13 -42 -9 -16 6
-17 42 -15 449 l3 443 60 36 c200 121 692 399 706 399 9 0 20 -7 23 -16z"/>
</g>
</svg>
