<?xml version="1.0" standalone="no"?>
<!DOCTYPE svg PUBLIC "-//W3C//DTD SVG 1.1//EN" "http://www.w3.org/Graphics/SVG/1.1/DTD/svg11.dtd" >
<svg xmlns="http://www.w3.org/2000/svg" xmlns:xlink="http://www.w3.org/1999/xlink" version="1.1">
<metadata>
Created by FontForge 20160407 at Fri Sep 30 22:22:57 2016
 By Jimmy Warting
Copyright (c) 2012 by James T. Edmondson. All rights reserved.
</metadata>
<defs>
<font id="Edmondsans-Medium" horiz-adv-x="0" >
  <font-face 
    font-family="Edmondsans Medium"
    font-weight="410"
    font-stretch="normal"
    units-per-em="1000"
    panose-1="2 0 0 0 0 0 0 0 0 0"
    ascent="750"
    descent="-250"
    x-height="472"
    cap-height="700"
    bbox="-121 -312 978 931"
    underline-thickness="50"
    underline-position="-100"
    unicode-range="U+0020-FB02"
  />
<missing-glyph horiz-adv-x="334" 
 />
    <glyph glyph-name="fi" unicode="fi" horiz-adv-x="523" 
d="M305 380h-108v-380h-106v380h-73v92h73v115c0 108 71 176 164 176c46 0 81 -14 107 -39l-48 -79c-13 16 -32 23 -51 23c-40 0 -66 -29 -66 -85v-111h108v-92zM469 0h-106v472h106v-472zM342 596c0 40 34 74 74 74c41 0 75 -34 75 -74c0 -41 -34 -75 -75 -75
c-40 0 -74 34 -74 75z" />
    <glyph glyph-name="fl" unicode="fl" horiz-adv-x="581" 
d="M310 380h-108v-380h-106v380h-73v92h73v115c0 108 71 176 164 176c46 0 81 -14 107 -39l-48 -79c-13 16 -32 23 -51 23c-40 0 -66 -29 -66 -85v-111h108v-92zM514 0h-106v750h106v-750z" />
    <glyph glyph-name=".notdef" horiz-adv-x="334" 
 />
    <glyph glyph-name="NULL" 
 />
    <glyph glyph-name="CR" horiz-adv-x="300" 
 />
    <glyph glyph-name="space" unicode=" " horiz-adv-x="300" 
 />
    <glyph glyph-name="A" unicode="A" horiz-adv-x="590" 
d="M464 0l-58 194h-222l-58 -194h-114l226 700h113l226 -700h-113zM276 500l-63 -210h164l-63 212c-10 31 -17 64 -19 77c-2 -15 -10 -49 -19 -79z" />
    <glyph glyph-name="O" unicode="O" horiz-adv-x="803" 
d="M402 -10c-199 0 -360 161 -360 360c0 197 161 359 360 359c197 0 359 -162 359 -359c0 -199 -162 -360 -359 -360zM402 90c143 0 250 111 250 260s-106 259 -250 259c-145 0 -251 -111 -251 -259c0 -151 107 -260 251 -260z" />
    <glyph glyph-name="L" unicode="L" horiz-adv-x="474" 
d="M449 0h-369v700h106v-600h263v-100z" />
    <glyph glyph-name="R" unicode="R" horiz-adv-x="603" 
d="M196 0h-106v700h229c141 0 222 -92 222 -219c0 -89 -40 -158 -109 -193l126 -288h-116c-38 87 -75 175 -111 263h-12h-123v-263zM308 361c87 0 129 47 129 120c0 74 -45 121 -129 121h-112v-241h112z" />
    <glyph glyph-name="B" unicode="B" horiz-adv-x="584" 
d="M266 0h-176v700h189c114 0 178 -70 178 -168c0 -59 -27 -99 -70 -125c87 -31 142 -101 142 -193c0 -120 -80 -214 -263 -214zM196 90h96c86 0 130 60 130 125c0 63 -46 127 -129 127h-97v-252zM196 437h59c67 0 98 41 98 95c0 43 -25 85 -84 85h-73v-180z" />
    <glyph glyph-name="E" unicode="E" horiz-adv-x="555" 
d="M490 0h-400v700h400v-97h-294v-188h221v-96h-221v-223h294v-96z" />
    <glyph glyph-name="H" unicode="H" horiz-adv-x="630" 
d="M550 0h-107v344h-256v-344h-107v700h107v-257h256v257h107v-700z" />
    <glyph glyph-name="F" unicode="F" horiz-adv-x="484" 
d="M186 -1l-106 1v700h371v-99h-265v-186h198v-99h-198v-317z" />
    <glyph glyph-name="P" unicode="P" horiz-adv-x="581" 
d="M196 0h-106v700h229c141 0 222 -92 222 -219c0 -130 -86 -218 -222 -218h-123v-263zM308 361c87 0 129 47 129 120c0 74 -45 121 -129 121h-112v-241h112z" />
    <glyph glyph-name="T" unicode="T" horiz-adv-x="441" 
d="M274 0h-107v601h-147v99h401v-99h-147v-601z" />
    <glyph glyph-name="V" unicode="V" horiz-adv-x="585" 
d="M324 243l137 457h114l-226 -700h-113l-226 700h113l138 -457c17 -56 24 -89 32 -124c6 35 14 66 31 124z" />
    <glyph glyph-name="I" unicode="I" horiz-adv-x="388" 
d="M333 0h-278v89h86v521h-86v90h278v-90h-86v-521h86v-89z" />
    <glyph glyph-name="K" unicode="K" horiz-adv-x="583" 
d="M196 0h-106v700h106v-249c0 -19 -2 -41 -2 -44c1 3 11 22 22 36l185 257h119l-185 -257l231 -443h-122l-162 318c-10 20 -17 39 -17 39c-2 0 -12 -20 -24 -37l-45 -60v-260z" />
    <glyph glyph-name="J" unicode="J" horiz-adv-x="456" 
d="M180 -9c-75 0 -141 31 -176 110l81 53c20 -38 50 -64 93 -64c53 0 88 44 88 109v501h106v-498c0 -120 -63 -211 -192 -211z" />
    <glyph glyph-name="M" unicode="M" horiz-adv-x="915" 
d="M758 700l97 -700h-114l-54 472c-5 37 -7 73 -7 80c-1 -9 -8 -44 -19 -77l-162 -475h-84l-163 474c-12 35 -19 76 -20 80c0 -2 -1 -44 -5 -82l-54 -472h-113l96 700h125l163 -476c7 -21 12 -49 12 -52c2 2 5 31 12 51l165 477h125z" />
    <glyph glyph-name="D" unicode="D" horiz-adv-x="696" 
d="M314 0h-224v700h195c222 0 361 -100 361 -341c0 -229 -137 -359 -332 -359zM312 95c139 0 227 99 227 265c0 182 -93 244 -254 244h-88v-509h115z" />
    <glyph glyph-name="period" unicode="." horiz-adv-x="255" 
d="M53 65c0 40 34 74 74 74c41 0 75 -34 75 -74c0 -41 -34 -75 -75 -75c-40 0 -74 34 -74 75z" />
    <glyph glyph-name="quotesingle" unicode="'" horiz-adv-x="139" 
d="M109 544h-79l-5 156h89z" />
    <glyph glyph-name="S" unicode="S" horiz-adv-x="486" 
d="M244 -10c-90 0 -178 46 -214 142l91 52c23 -62 70 -97 124 -97c65 0 102 45 102 106c0 125 -270 180 -270 355c0 96 79 162 167 162c64 0 118 -29 150 -80l-77 -63c-17 26 -40 47 -70 47c-37 0 -64 -29 -64 -67c0 -99 271 -162 271 -353c0 -117 -91 -204 -210 -204z" />
    <glyph glyph-name="C" unicode="C" horiz-adv-x="707" 
d="M665 109c-66 -73 -155 -119 -265 -119c-200 0 -358 161 -358 360c0 197 159 359 358 359c105 0 194 -42 261 -114l-78 -71c-48 49 -111 84 -184 84c-140 0 -250 -116 -250 -258c0 -144 110 -259 250 -259c74 0 138 36 187 87z" />
    <glyph glyph-name="G" unicode="G" horiz-adv-x="745" 
d="M670 109c-66 -73 -155 -119 -265 -119c-200 0 -358 161 -358 360c0 197 159 359 358 359c105 0 194 -42 261 -114l-78 -71c-45 49 -111 84 -184 84c-140 0 -250 -116 -250 -258c0 -144 112 -259 250 -259c65 0 124 19 165 60v136h-164v93h265v-271z" />
    <glyph glyph-name="Y" unicode="Y" horiz-adv-x="574" 
d="M337 0h-106v348l-211 352h122l121 -210c11 -21 19 -40 21 -44c0 3 8 23 21 45l126 209h123l-217 -353v-347z" />
    <glyph glyph-name="bar" unicode="|" horiz-adv-x="266" 
d="M80 -56v806h106v-806h-106z" />
    <glyph glyph-name="U" unicode="U" horiz-adv-x="629" 
d="M314 88c68 0 124 54 124 141v471h107v-454c0 -182 -109 -256 -231 -256c-121 0 -230 74 -230 256v454h107v-471c0 -87 56 -141 123 -141z" />
    <glyph glyph-name="Q" unicode="Q" horiz-adv-x="803" 
d="M402 -10c-199 0 -360 161 -360 360c0 197 161 359 360 359c197 0 359 -162 359 -359c0 -88 -32 -168 -84 -231l74 -73l-61 -60l-75 74c-60 -44 -134 -70 -213 -70zM402 90c53 0 101 15 141 42l-78 78l61 61l78 -78c30 43 48 97 48 157c0 149 -106 259 -250 259
c-145 0 -251 -111 -251 -259c0 -151 107 -260 251 -260z" />
    <glyph glyph-name="_0000" 
 />
    <glyph glyph-name="_0001" 
 />
    <glyph glyph-name="X" unicode="X" horiz-adv-x="577" 
d="M348 382l199 -382h-114l-129 253c-11 20 -17 38 -19 44l-18 -44l-123 -253h-114l193 382l-164 318h116l92 -187c11 -23 18 -42 18 -44c0 1 7 20 19 44l93 187h116z" />
    <glyph glyph-name="Z" unicode="Z" horiz-adv-x="588" 
d="M521 0h-462v83l307 485c12 19 23 34 23 34s-23 -1 -42 -1h-273v99h447v-84l-309 -489c-10 -17 -22 -30 -21 -30c0 0 17 2 35 2h295v-99z" />
    <glyph glyph-name="zero" unicode="0" horiz-adv-x="678" 
d="M37 350c0 203 107 360 302 360s302 -156 302 -360c0 -199 -107 -360 -302 -360s-302 161 -302 360zM142 350c0 -143 65 -260 197 -260s197 118 197 260c0 143 -64 259 -197 259s-197 -116 -197 -259z" />
    <glyph glyph-name="one" unicode="1" horiz-adv-x="407" 
d="M361 0h-296v95h95v489l-74 -38l-41 85l140 69h81v-605h95v-95z" />
    <glyph glyph-name="two" unicode="2" horiz-adv-x="554" 
d="M497 0h-440v84s326 217 326 414c0 69 -47 111 -102 111c-56 0 -103 -39 -103 -106c0 -35 7 -58 12 -71l-100 -30s-20 35 -20 95c0 132 100 211 213 211c112 0 208 -70 208 -205c0 -169 -169 -330 -261 -407c24 3 61 7 103 7h164v-103z" />
    <glyph glyph-name="_0002" 
 />
    <glyph glyph-name="three" unicode="3" horiz-adv-x="536" 
d="M261 -10c-161 0 -218 107 -225 137l88 43c6 -17 42 -87 134 -87c82 0 127 65 127 135c0 69 -45 124 -124 124h-33v85c58 0 103 41 103 106c0 47 -36 80 -72 80c-37 0 -69 -26 -70 -75h-104c0 116 88 173 175 173c88 0 175 -57 175 -169c0 -59 -24 -112 -75 -145
c90 -25 131 -103 131 -180c0 -125 -86 -227 -230 -227z" />
    <glyph glyph-name="_0003" 
 />
    <glyph glyph-name="four" unicode="4" horiz-adv-x="535" 
d="M406 0h-106v162h-275v74l297 464h84v-446h93v-92h-93v-162zM141 254h159v246z" />
    <glyph glyph-name="eight" unicode="8" horiz-adv-x="563" 
d="M282 -10c-159 0 -236 107 -236 213c0 80 42 157 127 193c-44 28 -74 75 -74 139c0 87 60 175 183 175c121 0 183 -87 183 -174c0 -65 -30 -112 -74 -140c85 -36 126 -113 126 -192c0 -107 -77 -214 -235 -214zM282 81c85 0 129 63 129 131c0 67 -43 133 -129 133
c-87 0 -131 -66 -131 -133c0 -68 44 -131 131 -131zM282 432c55 0 81 47 81 98c0 49 -28 95 -81 95c-54 0 -83 -46 -83 -95c0 -51 28 -98 83 -98z" />
    <glyph glyph-name="five" unicode="5" horiz-adv-x="582" 
d="M457 600h-263v-150c22 13 59 27 105 27c168 0 242 -117 242 -237c0 -131 -87 -250 -258 -250c-164 0 -236 110 -246 150c30 15 60 31 90 47c8 -21 59 -99 154 -99c101 0 152 75 152 153c0 73 -50 148 -146 148c-67 0 -104 -39 -111 -50l-80 46v315h361v-100z" />
    <glyph glyph-name="six" unicode="6" horiz-adv-x="577" 
d="M300 -9c-165 0 -251 127 -251 285c0 192 102 380 320 437l33 -91c-187 -52 -235 -213 -235 -213l1 -1c38 45 85 66 156 66c140 0 219 -112 219 -234c0 -131 -88 -249 -243 -249zM297 82c89 0 137 78 137 155s-45 149 -136 149c-93 0 -141 -74 -141 -152
c0 -77 47 -152 140 -152z" />
    <glyph glyph-name="nine" unicode="9" horiz-adv-x="593" 
d="M289 713c165 0 251 -128 251 -286c0 -192 -102 -380 -320 -436l-33 90c187 52 235 213 235 213l-1 1c-38 -45 -85 -66 -156 -66c-140 0 -219 112 -219 234c0 131 88 250 243 250zM292 621c-89 0 -137 -78 -137 -155s45 -149 136 -149c93 0 141 74 141 152
c0 77 -47 152 -140 152z" />
    <glyph glyph-name="seven" unicode="7" horiz-adv-x="488" 
d="M276 0h-109c0 272 109 503 162 597h-289v103h405v-83s-174 -274 -169 -617z" />
    <glyph glyph-name="comma" unicode="," horiz-adv-x="247" 
d="M120 -6c-40 0 -76 29 -76 72c0 38 32 73 75 73c57 0 84 -46 84 -102c0 -67 -44 -141 -112 -165c-11 18 -23 36 -33 54c50 27 58 62 62 68z" />
    <glyph glyph-name="underscore" unicode="_" horiz-adv-x="516" 
d="M-5 -124v79h529v-79h-529z" />
    <glyph glyph-name="slash" unicode="/" horiz-adv-x="355" 
d="M-18 -100l280 900h109l-280 -900h-109z" />
    <glyph glyph-name="fraction" unicode="&#x2044;" horiz-adv-x="489" 
d="M-14 0l374 700h105l-374 -700h-105z" />
    <glyph glyph-name="question" unicode="?" horiz-adv-x="474" 
d="M165 65c0 40 34 74 74 74c41 0 75 -34 75 -74c0 -41 -34 -75 -75 -75c-40 0 -74 34 -74 75zM289 195h-109c-6 98 55 159 105 212c33 34 59 71 59 110c0 57 -43 92 -98 92c-61 0 -108 -38 -108 -104c0 -15 5 -43 10 -58l-100 -29s-14 26 -14 86c0 133 107 206 212 206
c121 0 205 -74 205 -192c0 -67 -35 -116 -74 -156c-46 -47 -93 -93 -88 -167z" />
    <glyph glyph-name="at" unicode="@" horiz-adv-x="837" 
d="M423 -68c-223 0 -395 173 -395 398c0 218 172 397 395 397c226 0 387 -179 387 -397c0 -155 -92 -224 -173 -224c-47 0 -91 25 -109 70c-30 -37 -73 -61 -130 -61c-124 0 -186 106 -186 210c0 106 62 211 187 211c50 0 91 -21 118 -51v41h95v-294c0 -37 19 -57 43 -57
c37 0 84 49 84 155c0 180 -131 329 -316 329s-316 -148 -316 -329c0 -189 138 -329 316 -329c77 0 144 24 197 67l42 -56c-67 -50 -149 -80 -239 -80zM422 201c64 0 98 61 98 125c0 63 -33 124 -98 124c-74 0 -113 -61 -113 -125c0 -63 39 -124 113 -124z" />
    <glyph glyph-name="_0004" 
 />
    <glyph glyph-name="a" unicode="a" horiz-adv-x="547" 
d="M522 0h-29c-60 0 -91 34 -105 83c-30 -46 -88 -93 -182 -93c-107 0 -161 68 -161 139c0 85 69 156 212 156c51 0 95 -10 120 -15v24c0 59 -42 99 -107 99c-42 0 -83 -21 -107 -56l-75 57s55 93 186 93c127 0 205 -77 205 -190v-173c0 -17 11 -28 29 -28h14v-96zM229 75
c86 0 136 63 147 125c-23 5 -64 12 -102 12c-74 0 -122 -32 -122 -77c0 -33 25 -60 77 -60z" />
    <glyph glyph-name="dollar" unicode="$" horiz-adv-x="497" 
d="M202 -76v70c-73 13 -138 58 -168 138l91 52c23 -62 70 -97 124 -97c65 0 102 45 102 106c0 125 -270 180 -270 355c0 80 55 139 124 156v76h91v-76c43 -11 78 -37 102 -74l-77 -63c-17 26 -40 47 -70 47c-37 0 -64 -29 -64 -67c0 -99 271 -162 271 -353
c0 -102 -69 -181 -165 -199v-71h-91z" />
    <glyph glyph-name="_0016" 
 />
    <glyph glyph-name="quotedblright" unicode="&#x201d;" horiz-adv-x="355" 
d="M58 468l-30 48c28 15 49 46 57 64c-37 4 -68 25 -68 65c0 33 28 64 66 64c51 0 75 -39 75 -88c0 -61 -37 -130 -100 -153zM238 468l-30 48c28 15 49 46 57 64c-37 4 -68 25 -68 65c0 33 28 64 66 64c51 0 75 -39 75 -88c0 -61 -37 -130 -100 -153z" />
    <glyph glyph-name="quotedblleft" unicode="&#x201c;" horiz-adv-x="355" 
d="M297 738l30 -47c-28 -16 -49 -46 -57 -64c37 -5 68 -25 68 -65c0 -34 -28 -65 -66 -65c-51 0 -75 40 -75 89c0 60 37 129 100 152zM117 738l30 -47c-28 -16 -49 -46 -57 -64c37 -5 68 -25 68 -65c0 -34 -28 -65 -66 -65c-51 0 -75 40 -75 89c0 60 37 129 100 152z" />
    <glyph glyph-name="quotedbl" unicode="&#x22;" horiz-adv-x="245" 
d="M105 544h-79l-5 156h89zM219 544h-79l-5 156h89z" />
    <glyph glyph-name="parenleft" unicode="(" horiz-adv-x="274" 
d="M160 755l81 -49c-72 -93 -107 -222 -107 -359s36 -268 107 -360c-26 -15 -54 -31 -80 -47c-89 108 -133 256 -133 410s43 300 132 405z" />
    <glyph glyph-name="parenright" unicode=")" horiz-adv-x="274" 
d="M108 755c89 -105 132 -251 132 -405s-44 -302 -133 -410c-26 16 -54 32 -80 47c71 92 106 222 106 356c0 139 -34 270 -106 363z" />
    <glyph glyph-name="percent" unicode="%" horiz-adv-x="733" 
d="M175 0h-111l480 700h111zM172 413c-81 0 -145 64 -145 144c0 81 64 145 145 145c80 0 144 -64 144 -145c0 -80 -64 -144 -144 -144zM172 494c35 0 64 28 64 63c0 36 -29 64 -64 64c-36 0 -64 -28 -64 -64c0 -35 28 -63 64 -63zM552 -3c-81 0 -145 64 -145 145
c0 80 64 144 145 144c80 0 144 -64 144 -144c0 -81 -64 -145 -144 -145zM552 78c35 0 64 28 64 64c0 35 -29 64 -64 64c-36 0 -64 -29 -64 -64c0 -36 28 -64 64 -64z" />
    <glyph glyph-name="plus" unicode="+" horiz-adv-x="443" 
d="M40 338v84h139v140h84v-140h140v-84h-140v-139h-84v139h-139z" />
    <glyph glyph-name="hyphen" unicode="-" horiz-adv-x="323" 
d="M283 238h-243v84h243v-84z" />
    <glyph glyph-name="minus" unicode="&#x2212;" horiz-adv-x="443" 
d="M32 333v79h367v-79h-367z" />
    <glyph glyph-name="less" unicode="&#x3c;" horiz-adv-x="325" 
d="M295 233l-62 -63l-208 208l208 208c20 -21 42 -42 62 -62l-116 -116c-12 -12 -23 -22 -30 -30z" />
    <glyph glyph-name="greater" unicode="&#x3e;" horiz-adv-x="324" 
d="M92 170l-63 63l117 116c12 12 22 22 30 29l-147 146l63 62l208 -208z" />
    <glyph glyph-name="guillemotleft" unicode="&#xab;" horiz-adv-x="517" 
d="M289 233l-62 -63l-208 208l208 208c20 -21 42 -42 62 -62l-116 -116c-12 -12 -23 -22 -30 -30zM489 233l-62 -63l-208 208l208 208c20 -21 42 -42 62 -62l-116 -116c-12 -12 -23 -22 -30 -30z" />
    <glyph glyph-name="guillemotright" unicode="&#xbb;" horiz-adv-x="517" 
d="M92 170l-63 63l117 116c12 12 22 22 30 29l-147 146l63 62l208 -208zM292 170l-63 63l117 116c12 12 22 22 30 29l-147 146l63 62l208 -208z" />
    <glyph glyph-name="plusminus" unicode="&#xb1;" horiz-adv-x="443" 
d="M40 384v84h139v140h84v-140h140v-84h-140v-139h-84v139h-139zM32 129v79h367v-79h-367z" />
    <glyph glyph-name="colon" unicode=":" horiz-adv-x="254" 
d="M53 338c0 40 34 74 74 74c41 0 75 -34 75 -74c0 -41 -34 -75 -75 -75c-40 0 -74 34 -74 75zM53 65c0 40 34 74 74 74c41 0 75 -34 75 -74c0 -41 -34 -75 -75 -75c-40 0 -74 34 -74 75z" />
    <glyph glyph-name="backslash" unicode="\" horiz-adv-x="354" 
d="M91 800l280 -900h-109l-280 900h109z" />
    <glyph glyph-name="bracketleft" unicode="[" horiz-adv-x="227" 
d="M220 -4v-96h-175v900h175v-96h-68v-708h68z" />
    <glyph glyph-name="bracketright" unicode="]" horiz-adv-x="227" 
d="M7 -100v89h69v721h-69v90h175v-900h-175z" />
    <glyph glyph-name="semicolon" unicode=";" horiz-adv-x="248" 
d="M126 4c-36 0 -69 26 -69 65c0 35 29 66 68 66c52 0 77 -41 77 -92c0 -61 -40 -129 -102 -150c-10 16 -21 32 -30 49c45 24 53 56 56 62zM53 338c0 40 34 74 74 74c41 0 75 -34 75 -74c0 -41 -34 -75 -75 -75c-40 0 -74 34 -74 75z" />
    <glyph glyph-name="equal" unicode="=" horiz-adv-x="430" 
d="M370 255h-310v84h310v-84zM370 420h-310v84h310v-84z" />
    <glyph glyph-name="asterisk" unicode="*" horiz-adv-x="352" 
d="M139 630l-2 95h76c-1 -32 -1 -63 -3 -95c28 16 54 34 81 50c13 -21 24 -44 37 -66l-81 -44l81 -44l-36 -66c-28 16 -55 33 -82 50l3 -95h-76l3 95c-28 -17 -54 -34 -82 -50l-36 66c27 14 54 29 81 44l-81 44c13 22 24 45 37 66c27 -16 53 -34 80 -50z" />
    <glyph glyph-name="dotlessi" unicode="&#x131;" horiz-adv-x="192" 
d="M149 0h-106v472h106v-472z" />
    <glyph glyph-name="numbersign" unicode="#" horiz-adv-x="592" 
d="M237 0h-89v216h-127v89h127v120h-127v89h127v186h89v-186h118v186h89v-186h128v-89h-128v-120h128v-89h-128v-216h-89v216h-118v-216zM237 425v-120h118v120h-118z" />
    <glyph glyph-name="exclam" unicode="!" horiz-adv-x="254" 
d="M175 222h-97l-5 478h107zM53 65c0 40 34 74 74 74c41 0 75 -34 75 -74c0 -41 -34 -75 -75 -75c-40 0 -74 34 -74 75z" />
    <glyph glyph-name="_0007" 
 />
    <glyph glyph-name="_0009" 
 />
    <glyph glyph-name="_0014" 
 />
    <glyph glyph-name="_0015" 
 />
    <glyph glyph-name="_0017" 
 />
    <glyph glyph-name="a.alt" horiz-adv-x="561" 
d="M494 0h-100c0 32 1 54 2 69c-36 -50 -89 -79 -150 -79c-126 0 -209 107 -209 248c0 140 85 244 210 244c58 0 110 -23 146 -69c-1 5 -2 11 -2 18v41h103v-472zM268 81c77 0 124 67 124 155c0 92 -47 154 -124 154c-75 0 -128 -63 -128 -153s54 -156 128 -156z" />
    <glyph glyph-name="b" unicode="b" horiz-adv-x="565" 
d="M167 0h-100v750h103v-319c0 -5 -1 -12 -2 -20c35 46 86 71 146 71c125 0 210 -104 210 -244c0 -141 -83 -248 -209 -248c-62 0 -115 30 -150 80c1 -15 2 -38 2 -70zM293 81c74 0 128 66 128 156s-53 153 -128 153c-77 0 -124 -62 -124 -154c0 -88 47 -155 124 -155z" />
    <glyph glyph-name="_0018" 
 />
    <glyph glyph-name="c" unicode="c" horiz-adv-x="511" 
d="M464 403c-23 -23 -47 -45 -70 -67c-28 31 -60 52 -106 52c-82 0 -137 -64 -137 -151c0 -90 57 -151 137 -151c48 0 86 24 111 60l76 -60c-46 -62 -108 -95 -187 -95c-138 0 -241 109 -241 246s103 246 240 246c72 0 132 -31 177 -80z" />
    <glyph glyph-name="o" unicode="o" horiz-adv-x="560" 
d="M280 -10c-136 0 -243 108 -243 247c0 138 107 246 243 246c135 0 243 -108 243 -246c0 -139 -108 -247 -243 -247zM280 82c84 0 140 65 140 155c0 89 -56 154 -140 154c-85 0 -141 -66 -141 -154c0 -90 59 -155 141 -155z" />
    <glyph glyph-name="_0019" 
 />
    <glyph glyph-name="d" unicode="d" horiz-adv-x="561" 
d="M494 0h-100c0 32 1 54 2 69c-36 -50 -89 -79 -150 -79c-126 0 -209 107 -209 248c0 140 85 244 210 244c58 0 110 -23 146 -69c-1 6 -2 12 -2 18v319h103v-750zM268 81c77 0 124 67 124 155c0 92 -47 154 -124 154c-75 0 -128 -63 -128 -153s54 -156 128 -156z" />
    <glyph glyph-name="e" unicode="e" horiz-adv-x="526" 
d="M276 -10c-143 0 -241 106 -241 247c0 135 92 246 235 246c153 0 221 -112 221 -246v-26h-352c10 -92 72 -134 141 -134c64 0 108 31 134 69l71 -54c-47 -62 -101 -102 -209 -102zM269 396c-61 0 -113 -39 -127 -115h245c-9 71 -53 115 -118 115z" />
    <glyph glyph-name="n" unicode="n" horiz-adv-x="570" 
d="M503 273v-273h-104v269c0 84 -48 127 -109 127c-66 0 -118 -51 -120 -123v-273h-103v472h103v-32c0 -11 -1 -25 -3 -39c33 47 86 82 153 82c108 0 183 -75 183 -210z" />
    <glyph glyph-name="f" unicode="f" horiz-adv-x="339" 
d="M310 380h-108v-380h-106v380h-73v92h73v115c0 108 71 176 164 176c46 0 81 -14 107 -39l-48 -79c-13 16 -32 23 -51 23c-40 0 -66 -29 -66 -85v-111h108v-92z" />
    <glyph glyph-name="j" unicode="j" horiz-adv-x="279" 
d="M35 -309c-72 0 -129 36 -156 108l80 54c11 -46 41 -60 73 -60c39 0 69 34 69 85l-1 594h107v-597c0 -106 -70 -184 -172 -184zM79 601c0 40 34 74 74 74c41 0 75 -34 75 -74c0 -41 -34 -75 -75 -75c-40 0 -74 34 -74 75z" />
    <glyph glyph-name="g" unicode="g" horiz-adv-x="542" 
d="M273 482c39 0 75 -10 106 -27l65 72l66 -63l-66 -64c26 -34 42 -76 42 -122c0 -117 -95 -203 -213 -203c-37 0 -70 7 -99 20c-20 -19 -30 -42 -30 -61c0 -24 16 -43 52 -43c46 0 95 22 162 22c105 0 164 -68 164 -145c0 -92 -83 -180 -246 -180c-164 0 -244 77 -244 162
c0 33 12 68 37 99c-14 19 -20 43 -20 67c0 44 21 91 62 122c-34 36 -53 84 -53 140c0 117 96 204 215 204zM158 278c0 -71 50 -118 115 -118c67 0 113 48 113 118c0 72 -46 120 -113 120c-69 0 -115 -49 -115 -120zM176 -99c-16 0 -30 2 -43 5c-7 -12 -11 -25 -11 -38
c0 -46 49 -88 154 -88c92 0 147 43 147 93c0 28 -24 53 -67 53c-54 0 -109 -25 -180 -25z" />
    <glyph glyph-name="h" unicode="h" horiz-adv-x="570" 
d="M170 0h-103v750h103v-310c0 -11 -1 -25 -3 -39c33 47 86 82 153 82c108 0 183 -75 183 -210v-273h-104v269c0 83 -46 127 -110 127c-63 0 -115 -57 -119 -128v-268z" />
    <glyph glyph-name="m" unicode="m" horiz-adv-x="812" 
d="M170 0h-103v472h103v-28c0 -11 -1 -24 -3 -36c31 47 79 75 135 75c67 0 112 -31 136 -83c31 51 84 83 150 83c92 0 157 -60 157 -177v-306h-103v301c0 57 -34 95 -87 95s-98 -43 -98 -117v-279h-103v303c0 56 -34 91 -85 91c-52 0 -97 -40 -99 -110v-284z" />
    <glyph glyph-name="i" unicode="i" horiz-adv-x="247" 
d="M49 606c0 40 34 74 74 74c41 0 75 -34 75 -74c0 -41 -34 -75 -75 -75c-40 0 -74 34 -74 75zM175 0h-106v472h106v-472z" />
    <glyph glyph-name="l" unicode="l" horiz-adv-x="240" 
d="M173 0h-106v750h106v-750z" />
    <glyph glyph-name="p" unicode="p" horiz-adv-x="564" 
d="M315 -10c-61 0 -114 30 -150 77c1 -17 2 -38 2 -64v-253h-100v722h103v-41c0 -5 -1 -11 -1 -17c35 43 87 68 145 68c125 0 210 -104 210 -244c0 -141 -83 -248 -209 -248zM293 81c74 0 128 66 128 156s-53 153 -128 153c-77 0 -124 -62 -124 -154c0 -88 47 -155 124 -155
z" />
    <glyph glyph-name="q" unicode="q" horiz-adv-x="564" 
d="M254 -10c-126 0 -209 107 -209 248c0 140 84 244 209 244c63 0 112 -28 146 -73c-1 8 -1 15 -1 22v41h103v-722h-101v246c0 27 0 51 2 73c-35 -48 -87 -79 -149 -79zM275 81c77 0 125 67 125 155c0 92 -47 154 -125 154c-74 0 -127 -63 -127 -153s53 -156 127 -156z" />
    <glyph glyph-name="k" unicode="k" horiz-adv-x="501" 
d="M499 0h-114l-159 224l-53 -61v-163h-106v750h106v-457l154 180h116l-153 -176z" />
    <glyph glyph-name="r" unicode="r" horiz-adv-x="330" 
d="M297 483v-99c-75 -3 -127 -55 -127 -136v-248h-103v472h103v-32c0 -10 -1 -22 -2 -34c27 45 70 77 129 77z" />
    <glyph glyph-name="u" unicode="u" horiz-adv-x="568" 
d="M501 472v-472h-103v31c0 11 1 25 2 39c-33 -47 -86 -81 -152 -81c-108 0 -183 74 -183 210v273h104v-269c0 -85 48 -127 109 -127c59 0 120 50 120 128v268h103z" />
    <glyph glyph-name="s" unicode="s" horiz-adv-x="439" 
d="M32 81l69 60c29 -42 78 -63 124 -63c39 0 68 25 68 50c0 84 -229 68 -229 220c0 87 77 134 150 134c62 0 113 -24 146 -69c-23 -18 -45 -37 -67 -56c-16 23 -47 40 -78 40c-28 0 -52 -16 -52 -45c0 -73 232 -69 232 -218c0 -81 -65 -144 -171 -144c-79 0 -149 30 -192 91
z" />
    <glyph glyph-name="_0020" 
 />
    <glyph glyph-name="t" unicode="t" horiz-adv-x="317" 
d="M32 472h74v184h105v-184h74v-95h-74v-377h-105v377h-74v95z" />
    <glyph glyph-name="v" unicode="v" horiz-adv-x="508" 
d="M308 0h-114l-183 472h113l94 -246c14 -36 25 -75 33 -95c8 20 21 59 35 95l97 246h114z" />
    <glyph glyph-name="w" unicode="w" horiz-adv-x="801" 
d="M676 472h114l-174 -472h-113l-96 281c-5 12 -8 30 -8 35c-1 -4 -4 -23 -8 -35l-100 -281h-113c-56 157 -112 314 -167 472h113l101 -317c5 -15 9 -43 9 -43s5 28 10 43l107 317h98l101 -317c5 -16 8 -38 9 -42c0 3 4 25 10 42z" />
    <glyph glyph-name="y" unicode="y" horiz-adv-x="517" 
d="M59 -284l140 316l-183 440h111l91 -221c23 -56 37 -97 37 -97s17 41 41 97l96 221h112l-335 -756h-110z" />
    <glyph glyph-name="_0021" 
 />
    <glyph glyph-name="Euro" unicode="&#x20ac;" horiz-adv-x="729" 
d="M683 109c-66 -73 -156 -119 -266 -119c-172 0 -313 119 -349 280h-51v68h42v12c0 21 2 42 5 62h-47v68h66c52 133 182 229 334 229c106 0 195 -42 261 -114l-77 -71c-48 49 -112 84 -184 84c-93 0 -173 -52 -217 -128h365v-68h-392c-5 -20 -7 -41 -7 -62v-12h399v-68
h-387c32 -104 126 -179 239 -179c73 0 137 36 186 87z" />
    <glyph glyph-name="braceleft" unicode="{" horiz-adv-x="265" 
d="M20 304v98c46 0 66 22 66 65v213c0 73 51 125 130 125h19v-98h-8c-18 0 -36 -9 -36 -36v-206c0 -48 -23 -88 -65 -112c42 -25 65 -65 65 -112v-207c0 -27 18 -36 36 -36h8v-97h-19c-79 0 -130 51 -130 124v214c0 43 -20 65 -66 65z" />
    <glyph glyph-name="braceright" unicode="}" horiz-adv-x="265" 
d="M241 402v-98c-46 0 -66 -22 -66 -65v-214c0 -73 -51 -124 -130 -124h-19v97h8c18 0 36 9 36 36v207c0 47 22 87 64 112c-41 24 -64 64 -64 112v206c0 27 -18 36 -36 36h-8v98h19c79 0 130 -52 130 -125v-213c0 -43 20 -65 66 -65z" />
    <glyph glyph-name="z" unicode="z" horiz-adv-x="508" 
d="M39 76l287 305s-41 -2 -82 -2h-190v93h407v-77l-290 -305c21 0 54 3 89 3h201v-93h-422v76z" />
    <glyph glyph-name="x" unicode="x" horiz-adv-x="516" 
d="M17 0l175 241l-166 231h120l74 -103c26 -36 38 -56 38 -56s12 22 37 56l75 103h120l-168 -231l176 -241h-119l-81 112c-25 34 -38 53 -40 56c-1 -1 -14 -21 -39 -56l-82 -112h-120z" />
    <glyph glyph-name="sterling" unicode="&#xa3;" horiz-adv-x="506" 
d="M474 95v-95h-443v95h44c18 44 26 85 26 126c0 17 -1 35 -3 53h-72v90h64c-4 40 -7 85 -7 138c0 135 94 208 196 208s196 -63 196 -199c0 -30 -5 -54 -5 -69l-105 10c3 16 5 32 5 47c0 56 -25 102 -90 102c-57 0 -92 -46 -92 -104c0 -46 3 -90 7 -133h139v-90h-134
c0 -8 1 -16 1 -24c0 -55 -6 -106 -26 -155h299z" />
    <glyph glyph-name="yen" unicode="&#xa5;" horiz-adv-x="519" 
d="M88 305v79h111l-204 316h122l108 -173c20 -33 32 -56 34 -60c0 2 10 26 33 60l114 173h123l-209 -316h103v-79h-111v-61h111v-79h-111v-165h-106v165h-118v79h118v61h-118z" />
    <glyph glyph-name="ff" unicode="&#xfb00;" horiz-adv-x="679" 
d="M310 380h-108v-380h-106v380h-73v92h73v115c0 108 71 176 164 176c46 0 81 -14 107 -39l-48 -79c-13 16 -32 23 -51 23c-40 0 -66 -29 -66 -85v-111h108v-92zM650 380h-108v-380h-106v380h-73v92h73v115c0 108 71 176 164 176c46 0 81 -14 107 -39l-48 -79
c-13 16 -32 23 -51 23c-40 0 -66 -29 -66 -85v-111h108v-92z" />
    <glyph glyph-name="ampersand" unicode="&#x26;" horiz-adv-x="617" 
d="M573 404c-10 -72 -34 -154 -72 -226l101 -124l-80 -63c-28 33 -55 67 -82 101c-52 -60 -117 -102 -198 -102c-118 0 -228 79 -228 218c0 107 79 173 160 214c-1 1 -2 2 -2 3c-33 41 -50 89 -50 137c0 81 68 148 155 148c96 0 141 -69 141 -138c0 -74 -38 -125 -103 -164
l123 -152c16 45 29 97 35 148h100zM246 84c51 0 100 26 139 74l-160 201c-62 -38 -107 -82 -107 -147c0 -79 53 -128 128 -128zM223 564c0 -32 17 -64 43 -96c37 25 55 57 55 99c0 28 -16 53 -47 53c-32 0 -51 -25 -51 -56z" />
    <glyph glyph-name="_0022" 
 />
    <glyph glyph-name="asciicircum" unicode="^" horiz-adv-x="466" 
d="M81 454l-62 62l172 172h71l173 -172l-62 -62l-146 146z" />
    <glyph glyph-name="grave" unicode="`" horiz-adv-x="187" 
d="M-32 625l58 62l150 -140l-57 -62z" />
    <glyph glyph-name="Agrave" unicode="&#xc0;" horiz-adv-x="580" 
d="M459 0l-58 194h-222l-58 -194h-114l226 700h113l226 -700h-113zM271 500l-63 -210h164l-63 212c-10 31 -17 64 -19 77c-2 -15 -10 -49 -19 -79zM141 869l58 62l150 -140l-57 -62z" />
    <glyph glyph-name="acute" unicode="&#xb4;" horiz-adv-x="283" 
d="M181 687l58 -62l-151 -140l-57 62z" />
    <glyph glyph-name="Aacute" unicode="&#xc1;" horiz-adv-x="580" 
d="M459 0l-58 194h-222l-58 -194h-114l226 700h113l226 -700h-113zM271 500l-63 -210h164l-63 212c-10 31 -17 64 -19 77c-2 -15 -10 -49 -19 -79zM381 931l58 -62l-151 -140l-57 62z" />
    <glyph glyph-name="dieresis" unicode="&#xa8;" horiz-adv-x="372" 
d="M35 613c0 33 26 59 59 59c32 0 59 -26 59 -59s-27 -59 -59 -59c-33 0 -59 26 -59 59zM221 613c0 33 26 59 59 59c32 0 59 -26 59 -59s-27 -59 -59 -59c-33 0 -59 26 -59 59z" />
    <glyph glyph-name="Adieresis" unicode="&#xc4;" horiz-adv-x="580" 
d="M459 0l-58 194h-222l-58 -194h-114l226 700h113l226 -700h-113zM271 500l-63 -210h164l-63 212c-10 31 -17 64 -19 77c-2 -15 -10 -49 -19 -79zM140 837c0 33 26 59 59 59c32 0 59 -26 59 -59s-27 -59 -59 -59c-33 0 -59 26 -59 59zM326 837c0 33 26 59 59 59
c32 0 59 -26 59 -59s-27 -59 -59 -59c-33 0 -59 26 -59 59z" />
    <glyph glyph-name="Idieresis" unicode="&#xcf;" horiz-adv-x="390" 
d="M337 0h-278v89h86v521h-86v90h278v-90h-86v-521h86v-89zM41 857c0 33 26 59 59 59c32 0 59 -26 59 -59s-27 -59 -59 -59c-33 0 -59 26 -59 59zM227 857c0 33 26 59 59 59c32 0 59 -26 59 -59s-27 -59 -59 -59c-33 0 -59 26 -59 59z" />
    <glyph glyph-name="Edieresis" unicode="&#xcb;" horiz-adv-x="540" 
d="M480 0h-400v700h400v-97h-294v-188h221v-96h-221v-223h294v-96zM129 857c0 33 26 59 59 59c32 0 59 -26 59 -59s-27 -59 -59 -59c-33 0 -59 26 -59 59zM315 857c0 33 26 59 59 59c32 0 59 -26 59 -59s-27 -59 -59 -59c-33 0 -59 26 -59 59z" />
    <glyph glyph-name="Udieresis" unicode="&#xdc;" horiz-adv-x="618" 
d="M310 88c68 0 124 54 124 141v471h107v-454c0 -182 -109 -256 -231 -256c-121 0 -230 74 -230 256v454h107v-471c0 -87 56 -141 123 -141zM159 857c0 33 26 59 59 59c32 0 59 -26 59 -59s-27 -59 -59 -59c-33 0 -59 26 -59 59zM345 857c0 33 26 59 59 59
c32 0 59 -26 59 -59s-27 -59 -59 -59c-33 0 -59 26 -59 59z" />
    <glyph glyph-name="adieresis" unicode="&#xe4;" horiz-adv-x="552" 
d="M522 0h-29c-60 0 -91 34 -105 83c-30 -46 -88 -93 -182 -93c-107 0 -161 68 -161 139c0 85 69 156 212 156c51 0 95 -10 120 -15v24c0 59 -42 99 -107 99c-42 0 -83 -21 -107 -56l-75 57s55 93 186 93c127 0 205 -77 205 -190v-173c0 -17 11 -28 29 -28h14v-96zM229 75
c86 0 136 63 147 125c-23 5 -64 12 -102 12c-74 0 -122 -32 -122 -77c0 -33 25 -60 77 -60zM126 613c0 33 26 59 59 59c32 0 59 -26 59 -59s-27 -59 -59 -59c-33 0 -59 26 -59 59zM312 613c0 33 26 59 59 59c32 0 59 -26 59 -59s-27 -59 -59 -59c-33 0 -59 26 -59 59z" />
    <glyph glyph-name="edieresis" unicode="&#xeb;" horiz-adv-x="540" 
d="M281 -10c-143 0 -241 106 -241 247c0 135 92 246 235 246c153 0 221 -112 221 -246v-26h-352c10 -92 72 -134 141 -134c64 0 108 31 134 69l71 -54c-47 -62 -101 -102 -209 -102zM274 396c-61 0 -113 -39 -127 -115h245c-9 71 -53 115 -118 115zM118 613
c0 33 26 59 59 59c32 0 59 -26 59 -59s-27 -59 -59 -59c-33 0 -59 26 -59 59zM304 613c0 33 26 59 59 59c32 0 59 -26 59 -59s-27 -59 -59 -59c-33 0 -59 26 -59 59z" />
    <glyph glyph-name="idieresis" unicode="&#xef;" horiz-adv-x="237" 
d="M-33 613c0 33 26 59 59 59c32 0 59 -26 59 -59s-27 -59 -59 -59c-33 0 -59 26 -59 59zM153 613c0 33 26 59 59 59c32 0 59 -26 59 -59s-27 -59 -59 -59c-33 0 -59 26 -59 59zM172 0h-106v472h106v-472z" />
    <glyph glyph-name="udieresis" unicode="&#xfc;" horiz-adv-x="540" 
d="M492 472v-472h-103v31c0 11 1 25 2 39c-33 -47 -86 -81 -152 -81c-108 0 -183 74 -183 210v273h104v-269c0 -85 48 -127 109 -127c59 0 120 50 120 128v268h103zM309 613c0 33 26 59 59 59c32 0 59 -26 59 -59s-27 -59 -59 -59c-33 0 -59 26 -59 59zM123 613
c0 33 26 59 59 59c32 0 59 -26 59 -59s-27 -59 -59 -59c-33 0 -59 26 -59 59z" />
    <glyph glyph-name="odieresis" unicode="&#xf6;" horiz-adv-x="570" 
d="M285 -10c-136 0 -243 108 -243 247c0 138 107 246 243 246c135 0 243 -108 243 -246c0 -139 -108 -247 -243 -247zM285 82c84 0 140 65 140 155c0 89 -56 154 -140 154c-85 0 -141 -66 -141 -154c0 -90 59 -155 141 -155zM130 613c0 33 26 59 59 59c32 0 59 -26 59 -59
s-27 -59 -59 -59c-33 0 -59 26 -59 59zM316 613c0 33 26 59 59 59c32 0 59 -26 59 -59s-27 -59 -59 -59c-33 0 -59 26 -59 59z" />
    <glyph glyph-name="agrave" unicode="&#xe0;" horiz-adv-x="552" 
d="M522 0h-29c-60 0 -91 34 -105 83c-30 -46 -88 -93 -182 -93c-107 0 -161 68 -161 139c0 85 69 156 212 156c51 0 95 -10 120 -15v24c0 59 -42 99 -107 99c-42 0 -83 -21 -107 -56l-75 57s55 93 186 93c127 0 205 -77 205 -190v-173c0 -17 11 -28 29 -28h14v-96zM229 75
c86 0 136 63 147 125c-23 5 -64 12 -102 12c-74 0 -122 -32 -122 -77c0 -33 25 -60 77 -60zM170 645l58 62l150 -140l-57 -62z" />
    <glyph glyph-name="aacute" unicode="&#xe1;" horiz-adv-x="552" 
d="M522 0h-29c-60 0 -91 34 -105 83c-30 -46 -88 -93 -182 -93c-107 0 -161 68 -161 139c0 85 69 156 212 156c51 0 95 -10 120 -15v24c0 59 -42 99 -107 99c-42 0 -83 -21 -107 -56l-75 57s55 93 186 93c127 0 205 -77 205 -190v-173c0 -17 11 -28 29 -28h14v-96zM229 75
c86 0 136 63 147 125c-23 5 -64 12 -102 12c-74 0 -122 -32 -122 -77c0 -33 25 -60 77 -60zM311 707l58 -62l-151 -140l-57 62z" />
    <glyph glyph-name="egrave" unicode="&#xe8;" horiz-adv-x="540" 
d="M496 211h-352c10 -92 72 -134 141 -134c64 0 108 31 134 69l71 -54c-47 -62 -101 -102 -209 -102c-143 0 -241 106 -241 247c0 135 92 246 235 246c153 0 221 -112 221 -246v-26zM274 396c-61 0 -113 -39 -127 -115h245c-9 71 -53 115 -118 115zM172 645l58 62l150 -140
l-57 -62z" />
    <glyph glyph-name="eacute" unicode="&#xe9;" horiz-adv-x="540" 
d="M281 -10c-143 0 -241 106 -241 247c0 135 92 246 235 246c153 0 221 -112 221 -246v-26h-352c10 -92 72 -134 141 -134c64 0 108 31 134 69l71 -54c-47 -62 -101 -102 -209 -102zM274 396c-61 0 -113 -39 -127 -115h245c-9 71 -53 115 -118 115zM308 707l58 -62
l-151 -140l-57 62z" />
    <glyph glyph-name="igrave" unicode="&#xec;" horiz-adv-x="229" 
d="M-45 645l58 62l150 -140l-57 -62zM167 0h-106v472h106v-472z" />
    <glyph glyph-name="iacute" unicode="&#xed;" horiz-adv-x="231" 
d="M212 707l58 -62l-151 -140l-57 62zM168 0h-106v472h106v-472z" />
    <glyph glyph-name="Thorn" unicode="&#xde;" horiz-adv-x="562" 
d="M186 0h-106v700h106v-113h114c127 0 222 -68 222 -201c0 -118 -83 -201 -199 -201h-137v-185zM298 489h-112v-206h126c63 0 107 43 107 103c0 69 -51 103 -121 103z" />
    <glyph glyph-name="germandbls" unicode="&#xdf;" horiz-adv-x="506" 
d="M162 0h-105v537c0 109 76 173 168 173c97 0 161 -62 161 -159c0 -53 -17 -98 -46 -135c-6 -8 -10 -15 -10 -22c0 -9 7 -18 26 -27h-1c53 -27 114 -64 114 -167c0 -120 -97 -205 -253 -205v97c89 0 144 41 144 108c0 104 -139 92 -139 183c0 72 63 93 63 171
c0 43 -25 67 -59 67c-33 0 -63 -27 -63 -87v-534z" />
    <glyph glyph-name="Acircumflex" unicode="&#xc2;" horiz-adv-x="580" 
d="M459 0l-58 194h-222l-58 -194h-114l226 700h113l226 -700h-113zM219 768l-63 63l98 99h71l99 -99l-62 -63l-49 56l-23 27l-24 -27c-16 -18 -31 -37 -47 -56zM271 500l-63 -210h164l-63 212c-10 31 -17 64 -19 77c-2 -15 -10 -49 -19 -79z" />
    <glyph glyph-name="circumflex" unicode="&#x2c6;" horiz-adv-x="294" 
d="M74 518l-63 63l98 99h71l99 -99l-62 -63l-49 56l-23 27l-24 -27c-16 -18 -31 -37 -47 -56z" />
    <glyph glyph-name="Ecircumflex" unicode="&#xca;" horiz-adv-x="540" 
d="M480 0h-400v700h400v-97h-294v-188h221v-96h-221v-223h294v-96zM210 762l-63 63l98 99h71l99 -99l-62 -63l-49 56l-23 27l-24 -27c-16 -18 -31 -37 -47 -56z" />
    <glyph glyph-name="Igrave" unicode="&#xcc;" horiz-adv-x="392" 
d="M339 0h-278v89h86v521h-86v90h278v-90h-86v-521h86v-89zM35 869l58 62l150 -140l-57 -62z" />
    <glyph glyph-name="Iacute" unicode="&#xcd;" horiz-adv-x="383" 
d="M331 0h-278v89h86v521h-86v90h278v-90h-86v-521h86v-89zM283 931l58 -62l-151 -140l-57 62z" />
    <glyph glyph-name="Icircumflex" unicode="&#xce;" horiz-adv-x="383" 
d="M331 0h-278v89h86v521h-86v90h278v-90h-86v-521h86v-89zM115 762l-63 63l98 99h71l99 -99l-62 -63l-49 56l-23 27l-24 -27c-16 -18 -31 -37 -47 -56z" />
    <glyph glyph-name="tilde" unicode="&#x2dc;" horiz-adv-x="476" 
d="M96 527l-51 56c12 15 47 52 103 52c48 0 93 -40 137 -40c30 0 52 27 56 31c19 -17 36 -35 55 -52c-14 -21 -46 -60 -107 -60c-53 0 -97 39 -139 39c-31 0 -49 -22 -54 -26z" />
    <glyph glyph-name="Atilde" unicode="&#xc3;" horiz-adv-x="580" 
d="M459 0l-58 194h-222l-58 -194h-114l226 700h113l226 -700h-113zM173 771l-51 56c12 15 47 52 103 52c48 0 93 -40 137 -40c30 0 52 27 56 31c19 -17 36 -35 55 -52c-14 -21 -46 -60 -107 -60c-53 0 -97 39 -139 39c-31 0 -49 -22 -54 -26zM271 500l-63 -210h164l-63 212
c-10 31 -17 64 -19 77c-2 -15 -10 -49 -19 -79z" />
    <glyph glyph-name="asciitilde" unicode="~" horiz-adv-x="496" 
d="M81 327l-63 48c32 48 80 70 129 70c61 0 115 -42 160 -42c25 0 56 14 71 41l70 -47c-37 -56 -91 -79 -138 -79c-66 0 -106 42 -161 42c-25 0 -47 -11 -68 -33z" />
    <glyph glyph-name="Ntilde" unicode="&#xd1;" horiz-adv-x="622" 
d="M542 700v-700h-103v171l-236 323c-12 15 -24 36 -25 39c0 -1 3 -27 3 -47v-486h-101v700h103l236 -331c10 -15 20 -33 22 -37c0 1 -2 25 -2 44v324h103zM190 771l-51 56c12 15 47 52 103 52c48 0 93 -40 137 -40c30 0 52 27 56 31c19 -17 36 -35 55 -52
c-14 -21 -46 -60 -107 -60c-53 0 -97 39 -139 39c-31 0 -49 -22 -54 -26z" />
    <glyph glyph-name="icircumflex" unicode="&#xee;" horiz-adv-x="238" 
d="M170 0h-106v472h106v-472zM47 518l-63 63l98 99h71l99 -99l-62 -63l-49 56l-23 27l-24 -27c-16 -18 -31 -37 -47 -56z" />
    <glyph glyph-name="ntilde" unicode="&#xf1;" horiz-adv-x="570" 
d="M503 273v-273h-104v269c0 84 -48 127 -109 127c-66 0 -118 -51 -120 -123v-273h-103v472h103v-32c0 -11 -1 -25 -3 -39c33 47 86 82 153 82c108 0 183 -75 183 -210zM170 547l-51 56c12 15 47 52 103 52c48 0 93 -40 137 -40c30 0 52 27 56 31c19 -17 36 -35 55 -52
c-14 -21 -46 -60 -107 -60c-53 0 -97 39 -139 39c-31 0 -49 -22 -54 -26z" />
    <glyph glyph-name="otilde" unicode="&#xf5;" horiz-adv-x="570" 
d="M285 -10c-136 0 -243 108 -243 247c0 138 107 246 243 246c135 0 243 -108 243 -246c0 -139 -108 -247 -243 -247zM285 82c84 0 140 65 140 155c0 89 -56 154 -140 154c-85 0 -141 -66 -141 -154c0 -90 59 -155 141 -155zM166 547l-51 56c12 15 47 52 103 52
c48 0 93 -40 137 -40c30 0 52 27 56 31c19 -17 36 -35 55 -52c-14 -21 -46 -60 -107 -60c-53 0 -97 39 -139 39c-31 0 -49 -22 -54 -26z" />
    <glyph glyph-name="caron" unicode="&#x2c7;" horiz-adv-x="293" 
d="M11 624l63 63c23 -27 50 -62 71 -83c2 3 9 9 17 19l55 64l63 -63l-100 -99h-71c-32 34 -66 66 -98 99z" />
    <glyph glyph-name="Zcaron" unicode="&#x17d;" horiz-adv-x="580" 
d="M515 0h-462v83l307 485c12 19 23 34 23 34s-23 -1 -42 -1h-273v99h447v-84l-309 -489c-10 -17 -22 -30 -21 -30c0 0 17 2 35 2h295v-99zM155 868l63 63c23 -27 50 -62 71 -83c2 3 9 9 17 19l55 64l63 -63l-100 -99h-71c-32 34 -66 66 -98 99z" />
    <glyph glyph-name="zcaron" unicode="&#x17e;" horiz-adv-x="490" 
d="M27 76l287 305s-41 -2 -82 -2h-190v93h407v-77l-290 -305c21 0 54 3 89 3h201v-93h-422v76zM110 624l63 63c23 -27 50 -62 71 -83c2 3 9 9 17 19l55 64l63 -63l-100 -99h-71c-32 34 -66 66 -98 99z" />
    <glyph glyph-name="section" unicode="&#xa7;" horiz-adv-x="477" 
d="M239 -9c-85 0 -170 43 -204 144l95 46c22 -59 65 -93 113 -93c45 0 73 23 73 58c0 102 -274 72 -274 244c0 36 23 76 57 104c-12 18 -19 40 -19 67c0 87 74 149 165 149c64 0 118 -29 150 -80l-78 -59c-17 26 -40 40 -69 40c-34 0 -58 -19 -58 -47
c0 -82 254 -82 254 -236c0 -47 -22 -84 -46 -105c13 -20 22 -44 22 -74c0 -83 -53 -158 -181 -158zM138 403c0 -65 112 -79 195 -125c6 10 8 20 8 29c0 71 -108 89 -185 135c-11 -11 -18 -25 -18 -39z" />
    <glyph glyph-name="copyright" unicode="&#xa9;" horiz-adv-x="792" 
d="M35 349c0 199 161 361 361 361c199 0 361 -162 361 -361s-162 -360 -361 -360c-200 0 -361 161 -361 360zM548 490l-61 -59c-22 25 -48 41 -86 41c-61 0 -111 -51 -111 -122s55 -122 113 -122c42 0 69 19 91 48l64 -53c-38 -52 -90 -81 -157 -81c-111 0 -202 93 -202 208
s91 207 202 207c59 0 111 -27 147 -67zM105 349c0 -166 126 -294 291 -294s291 129 291 294c0 166 -125 294 -291 294s-291 -129 -291 -294z" />
    <glyph glyph-name="brokenbar" unicode="&#xa6;" horiz-adv-x="190" 
d="M137 -57h-89v387h89v-387zM137 390h-89v355h89v-355z" />
    <glyph glyph-name="Egrave" unicode="&#xc8;" horiz-adv-x="540" 
d="M480 0h-400v700h400v-97h-294v-188h221v-96h-221v-223h294v-96zM182 869l58 62l150 -140l-57 -62z" />
    <glyph glyph-name="Eacute" unicode="&#xc9;" horiz-adv-x="540" 
d="M480 0h-400v700h400v-97h-294v-188h221v-96h-221v-223h294v-96zM318 931l58 -62l-151 -140l-57 62z" />
    <glyph glyph-name="ae" unicode="&#xe6;" horiz-adv-x="887" 
d="M619 -10c-94 0 -160 49 -193 125c-32 -73 -104 -125 -210 -125c-113 0 -171 62 -171 137c0 88 69 158 214 158c51 0 91 -8 118 -16v25c0 60 -41 99 -107 99c-41 0 -82 -19 -107 -56l-75 57s55 93 186 93c90 0 142 -40 165 -103c34 60 94 99 179 99
c143 0 212 -112 212 -246v-26h-352c6 -88 64 -135 140 -135c64 0 109 31 135 70l70 -54c-47 -62 -105 -102 -204 -102zM231 71c101 0 142 80 146 136c-19 3 -57 12 -98 12c-79 0 -128 -34 -128 -84c0 -32 24 -64 80 -64zM726 281c-4 72 -53 115 -118 115s-115 -44 -127 -115
h245z" />
    <glyph glyph-name="cedilla" unicode="&#xb8;" horiz-adv-x="424" 
d="M125 -191l56 38c3 -3 13 -19 34 -19c23 0 34 17 34 34c0 16 -11 34 -33 34c-13 0 -23 -6 -30 -20l-50 22v133h62v-90c7 5 21 12 37 12c60 0 90 -45 90 -94c0 -50 -35 -101 -105 -101c-54 0 -85 37 -95 51z" />
    <glyph glyph-name="Ccedilla" unicode="&#xc7;" horiz-adv-x="676" 
d="M292 -191l56 38c3 -3 13 -19 34 -19c23 0 34 17 34 34c0 16 -11 34 -33 34c-13 0 -23 -6 -30 -20l-50 22v101c-161 36 -278 179 -278 351c0 197 159 359 358 359c105 0 194 -42 261 -114l-78 -71c-48 49 -111 84 -184 84c-140 0 -250 -116 -250 -258
c0 -144 110 -259 250 -259c74 0 138 36 187 87l79 -69c-66 -73 -155 -119 -265 -119c-6 0 -12 0 -18 1v-50c7 5 21 12 37 12c60 0 90 -45 90 -94c0 -50 -35 -101 -105 -101c-54 0 -85 37 -95 51z" />
    <glyph glyph-name="ccedilla" unicode="&#xe7;" horiz-adv-x="511" 
d="M192 -191l56 38c3 -3 13 -19 34 -19c23 0 34 17 34 34c0 16 -11 34 -33 34c-13 0 -23 -6 -30 -20l-50 22v108c-93 34 -156 124 -156 231c0 137 103 246 240 246c72 0 132 -31 177 -80c-23 -23 -47 -45 -70 -67c-28 31 -60 52 -106 52c-82 0 -137 -64 -137 -151
c0 -90 57 -151 137 -151c48 0 86 24 111 60l76 -60c-46 -62 -108 -95 -187 -95c-8 0 -16 1 -23 1v-51c7 5 21 12 37 12c60 0 90 -45 90 -94c0 -50 -35 -101 -105 -101c-54 0 -85 37 -95 51z" />
    <glyph glyph-name="Ograve" unicode="&#xd2;" horiz-adv-x="789" 
d="M395 -10c-199 0 -360 161 -360 360c0 197 161 359 360 359c197 0 359 -162 359 -359c0 -199 -162 -360 -359 -360zM395 90c143 0 250 111 250 260s-106 259 -250 259c-145 0 -251 -111 -251 -259c0 -151 107 -260 251 -260zM295 869l58 62l150 -140l-57 -62z" />
    <glyph glyph-name="Oacute" unicode="&#xd3;" horiz-adv-x="789" 
d="M395 -10c-199 0 -360 161 -360 360c0 197 161 359 360 359c197 0 359 -162 359 -359c0 -199 -162 -360 -359 -360zM395 90c143 0 250 111 250 260s-106 259 -250 259c-145 0 -251 -111 -251 -259c0 -151 107 -260 251 -260zM431 931l58 -62l-151 -140l-57 62z" />
    <glyph glyph-name="Ocircumflex" unicode="&#xd4;" horiz-adv-x="789" 
d="M395 -10c-199 0 -360 161 -360 360c0 197 161 359 360 359c197 0 359 -162 359 -359c0 -199 -162 -360 -359 -360zM395 90c143 0 250 111 250 260s-106 259 -250 259c-145 0 -251 -111 -251 -259c0 -151 107 -260 251 -260zM323 762l-63 63l98 99h71l99 -99l-62 -63
l-49 56l-23 27l-24 -27c-16 -18 -31 -37 -47 -56z" />
    <glyph glyph-name="Otilde" unicode="&#xd5;" horiz-adv-x="789" 
d="M395 -10c-199 0 -360 161 -360 360c0 197 161 359 360 359c197 0 359 -162 359 -359c0 -199 -162 -360 -359 -360zM395 90c143 0 250 111 250 260s-106 259 -250 259c-145 0 -251 -111 -251 -259c0 -151 107 -260 251 -260zM278 771l-51 56c12 15 47 52 103 52
c48 0 93 -40 137 -40c30 0 52 27 56 31c19 -17 36 -35 55 -52c-14 -21 -46 -60 -107 -60c-53 0 -97 39 -139 39c-31 0 -49 -22 -54 -26z" />
    <glyph glyph-name="Odieresis" unicode="&#xd6;" horiz-adv-x="789" 
d="M395 -10c-199 0 -360 161 -360 360c0 197 161 359 360 359c197 0 359 -162 359 -359c0 -199 -162 -360 -359 -360zM395 90c143 0 250 111 250 260s-106 259 -250 259c-145 0 -251 -111 -251 -259c0 -151 107 -260 251 -260zM242 857c0 33 26 59 59 59c32 0 59 -26 59 -59
s-27 -59 -59 -59c-33 0 -59 26 -59 59zM428 857c0 33 26 59 59 59c32 0 59 -26 59 -59s-27 -59 -59 -59c-33 0 -59 26 -59 59z" />
    <glyph glyph-name="scaron" unicode="&#x161;" horiz-adv-x="420" 
d="M20 81l69 60c29 -42 78 -63 124 -63c39 0 68 25 68 50c0 84 -229 68 -229 220c0 87 77 134 150 134c62 0 113 -24 146 -69c-23 -18 -45 -37 -67 -56c-16 23 -47 40 -78 40c-28 0 -52 -16 -52 -45c0 -73 232 -69 232 -218c0 -81 -65 -144 -171 -144c-79 0 -149 30 -192 91
zM74 636l63 63c23 -27 50 -62 71 -83c2 3 9 9 17 19l55 64l63 -63l-100 -99h-71c-32 34 -66 66 -98 99z" />
    <glyph glyph-name="Ydieresis" unicode="&#x178;" horiz-adv-x="489" 
d="M298 0h-106v348l-211 352h122l121 -210c12 -21 20 -41 21 -44c0 2 8 22 21 45l126 209h123l-217 -353v-347zM91 857c0 33 26 59 59 59c32 0 59 -26 59 -59s-27 -59 -59 -59c-33 0 -59 26 -59 59zM277 857c0 33 26 59 59 59c32 0 59 -26 59 -59s-27 -59 -59 -59
c-33 0 -59 26 -59 59z" />
    <glyph glyph-name="endash" unicode="&#x2013;" horiz-adv-x="483" 
d="M443 338h-403v84h403v-84z" />
    <glyph glyph-name="acircumflex" unicode="&#xe2;" horiz-adv-x="552" 
d="M522 0h-29c-60 0 -91 34 -105 83c-30 -46 -88 -93 -182 -93c-107 0 -161 68 -161 139c0 85 69 156 212 156c51 0 95 -10 120 -15v24c0 59 -42 99 -107 99c-42 0 -83 -21 -107 -56l-75 57s55 93 186 93c127 0 205 -77 205 -190v-173c0 -17 11 -28 29 -28h14v-96zM206 518
l-63 63l98 99h71l99 -99l-62 -63l-49 56l-23 27l-24 -27c-16 -18 -31 -37 -47 -56zM229 75c86 0 136 63 147 125c-23 5 -64 12 -102 12c-74 0 -122 -32 -122 -77c0 -33 25 -60 77 -60z" />
    <glyph glyph-name="atilde" unicode="&#xe3;" horiz-adv-x="552" 
d="M522 0h-29c-60 0 -91 34 -105 83c-30 -46 -88 -93 -182 -93c-107 0 -161 68 -161 139c0 85 69 156 212 156c51 0 95 -10 120 -15v24c0 59 -42 99 -107 99c-42 0 -83 -21 -107 -56l-75 57s55 93 186 93c127 0 205 -77 205 -190v-173c0 -17 11 -28 29 -28h14v-96zM158 537
l-51 56c12 15 47 52 103 52c48 0 93 -40 137 -40c30 0 52 27 56 31c19 -17 36 -35 55 -52c-14 -21 -46 -60 -107 -60c-53 0 -97 39 -139 39c-31 0 -49 -22 -54 -26zM229 75c86 0 136 63 147 125c-23 5 -64 12 -102 12c-74 0 -122 -32 -122 -77c0 -33 25 -60 77 -60z" />
    <glyph glyph-name="ecircumflex" unicode="&#xea;" horiz-adv-x="540" 
d="M281 -10c-143 0 -241 106 -241 247c0 135 92 246 235 246c153 0 221 -112 221 -246v-26h-352c10 -92 72 -134 141 -134c64 0 108 31 134 69l71 -54c-47 -62 -101 -102 -209 -102zM200 518l-63 63l98 99h71l99 -99l-62 -63l-49 56l-23 27l-24 -27c-16 -18 -31 -37 -47 -56
zM274 396c-61 0 -113 -39 -127 -115h245c-9 71 -53 115 -118 115z" />
    <glyph glyph-name="ograve" unicode="&#xf2;" horiz-adv-x="570" 
d="M285 -10c-136 0 -243 108 -243 247c0 138 107 246 243 246c135 0 243 -108 243 -246c0 -139 -108 -247 -243 -247zM285 82c84 0 140 65 140 155c0 89 -56 154 -140 154c-85 0 -141 -66 -141 -154c0 -90 59 -155 141 -155zM183 645l58 62l150 -140l-57 -62z" />
    <glyph glyph-name="oacute" unicode="&#xf3;" horiz-adv-x="570" 
d="M285 -10c-136 0 -243 108 -243 247c0 138 107 246 243 246c135 0 243 -108 243 -246c0 -139 -108 -247 -243 -247zM285 82c84 0 140 65 140 155c0 89 -56 154 -140 154c-85 0 -141 -66 -141 -154c0 -90 59 -155 141 -155zM319 707l58 -62l-151 -140l-57 62z" />
    <glyph glyph-name="ocircumflex" unicode="&#xf4;" horiz-adv-x="570" 
d="M285 -10c-136 0 -243 108 -243 247c0 138 107 246 243 246c135 0 243 -108 243 -246c0 -139 -108 -247 -243 -247zM285 82c84 0 140 65 140 155c0 89 -56 154 -140 154c-85 0 -141 -66 -141 -154c0 -90 59 -155 141 -155zM211 518l-63 63l98 99h71l99 -99l-62 -63l-49 56
l-23 27l-24 -27c-16 -18 -31 -37 -47 -56z" />
    <glyph glyph-name="oslash" unicode="&#xf8;" horiz-adv-x="570" 
d="M285 -10c-136 0 -243 108 -243 247c0 138 107 246 243 246c135 0 243 -108 243 -246c0 -139 -108 -247 -243 -247zM285 82c84 0 140 65 140 155c0 46 -16 86 -42 114l-153 -258c16 -7 35 -11 55 -11zM144 237c0 -44 13 -81 37 -108l151 254c-14 5 -30 8 -47 8
c-85 0 -141 -66 -141 -154z" />
    <glyph glyph-name="ugrave" unicode="&#xf9;" horiz-adv-x="540" 
d="M492 472v-472h-103v31c0 11 1 25 2 39c-33 -47 -86 -81 -152 -81c-108 0 -183 74 -183 210v273h104v-269c0 -85 48 -127 109 -127c59 0 120 50 120 128v268h103zM170 645l58 62l150 -140l-57 -62z" />
    <glyph glyph-name="uacute" unicode="&#xfa;" horiz-adv-x="540" 
d="M492 472v-472h-103v31c0 11 1 25 2 39c-33 -47 -86 -81 -152 -81c-108 0 -183 74 -183 210v273h104v-269c0 -85 48 -127 109 -127c59 0 120 50 120 128v268h103zM306 712l58 -62l-151 -140l-57 62z" />
    <glyph glyph-name="ucircumflex" unicode="&#xfb;" horiz-adv-x="540" 
d="M492 472v-472h-103v31c0 11 1 25 2 39c-33 -47 -86 -81 -152 -81c-108 0 -183 74 -183 210v273h104v-269c0 -85 48 -127 109 -127c59 0 120 50 120 128v268h103zM203 518l-63 63l98 99h71l99 -99l-62 -63l-49 56l-23 27l-24 -27c-16 -18 -31 -37 -47 -56z" />
    <glyph glyph-name="yacute" unicode="&#xfd;" horiz-adv-x="492" 
d="M50 -284l140 316l-183 440h111l91 -221c22 -53 35 -93 37 -97c1 2 17 42 41 97l96 221h112l-335 -756h-110zM282 707l58 -62l-151 -140l-57 62z" />
    <glyph glyph-name="thorn" unicode="&#xfe;" horiz-adv-x="564" 
d="M315 -10c-61 0 -114 29 -150 76c1 -19 2 -44 2 -70v-246h-100v1000h103v-319c0 -5 -1 -10 -1 -17c35 43 87 68 145 68c125 0 210 -104 210 -244c0 -141 -83 -248 -209 -248zM293 81c74 0 128 66 128 156s-53 153 -128 153c-77 0 -124 -62 -124 -154
c0 -88 47 -155 124 -155z" />
    <glyph glyph-name="ydieresis" unicode="&#xff;" horiz-adv-x="492" 
d="M50 -284l140 316l-183 440h111l91 -221c23 -56 37 -97 37 -97s17 41 41 97l96 221h112l-335 -756h-110zM96 613c0 33 26 59 59 59c32 0 59 -26 59 -59s-27 -59 -59 -59c-33 0 -59 26 -59 59zM282 613c0 33 26 59 59 59c32 0 59 -26 59 -59s-27 -59 -59 -59
c-33 0 -59 26 -59 59z" />
    <glyph glyph-name="trademark" unicode="&#x2122;" horiz-adv-x="591" 
d="M523 770l48 -306h-66l-22 177c-2 14 -2 25 -2 25c-1 -1 -4 -11 -7 -24l-55 -178h-53l-46 149c-9 27 -14 49 -15 54c0 -3 -1 -25 -5 -55l-19 -148h-66l47 306h67l50 -165c7 -23 12 -46 13 -50c0 2 6 26 14 50l51 165h66zM142 464h-66v244h-60v61h184v-61h-58v-244z" />
    <glyph glyph-name="oe" unicode="&#x153;" horiz-adv-x="903" 
d="M654 -10c-93 0 -160 48 -193 122c-37 -75 -107 -122 -192 -122c-128 0 -237 103 -237 247c0 142 107 246 235 246c86 0 156 -47 193 -122c33 73 97 122 191 122c143 0 212 -112 212 -246v-26h-352c6 -88 64 -135 140 -135c64 0 109 31 135 70l70 -54
c-47 -62 -103 -102 -202 -102zM275 82c85 0 141 65 141 155c0 89 -56 154 -141 154s-141 -66 -141 -154c0 -90 59 -155 141 -155zM759 281c-4 72 -53 115 -118 115s-115 -44 -127 -115h245z" />
    <glyph glyph-name="OE" unicode="&#x152;" horiz-adv-x="824" 
d="M760 0h-400c-199 0 -358 151 -358 350c0 197 160 350 358 350h400v-97h-294v-188h221v-96h-221v-223h294v-96zM360 97v506c-144 0 -251 -104 -251 -253c0 -152 108 -253 251 -253z" />
    <glyph glyph-name="registered" unicode="&#xae;" horiz-adv-x="531" 
d="M25 467c0 134 108 243 243 243c134 0 243 -109 243 -243c0 -135 -109 -243 -243 -243c-135 0 -243 108 -243 243zM80 467c0 -109 81 -190 188 -190s188 83 188 190c0 108 -80 190 -188 190s-188 -83 -188 -190zM239 358h-45v222h82c43 0 72 -28 72 -72
c0 -31 -14 -55 -36 -66l43 -84h-50l-37 76h-29v-76zM268 476c23 0 36 12 36 32c0 19 -13 31 -36 31h-29v-63h29z" />
    <glyph glyph-name="multiply" unicode="&#xd7;" horiz-adv-x="414" 
d="M81 196l-56 55l121 121l-122 121l57 57l121 -122l120 122l57 -57l-122 -121l121 -121l-56 -55l-120 121z" />
    <glyph glyph-name="Scaron" unicode="&#x160;" horiz-adv-x="493" 
d="M244 -10c-90 0 -178 46 -214 142l91 52c23 -62 70 -97 124 -97c65 0 102 45 102 106c0 125 -270 180 -270 355c0 96 79 162 167 162c64 0 118 -29 150 -80l-77 -63c-17 26 -40 47 -70 47c-37 0 -64 -29 -64 -67c0 -99 271 -162 271 -353c0 -117 -91 -204 -210 -204z
M112 868l63 63c23 -27 50 -62 71 -83c2 3 9 9 17 19l55 64l63 -63l-100 -99h-71c-32 34 -66 66 -98 99z" />
    <glyph glyph-name="aring" unicode="&#xe5;" horiz-adv-x="547" 
d="M522 0h-29c-60 0 -91 34 -105 83c-30 -46 -88 -93 -182 -93c-107 0 -161 68 -161 139c0 85 69 156 212 156c51 0 95 -10 120 -15v24c0 59 -42 99 -107 99c-42 0 -83 -21 -107 -56l-75 57s55 93 186 93c127 0 205 -77 205 -190v-173c0 -17 11 -28 29 -28h14v-96zM166 626
c0 61 49 110 110 110s111 -49 111 -110s-50 -111 -111 -111s-110 50 -110 111zM229 75c86 0 136 63 147 125c-23 5 -64 12 -102 12c-74 0 -122 -32 -122 -77c0 -33 25 -60 77 -60zM232 626c0 -24 20 -45 44 -45s44 21 44 45s-20 43 -44 43s-44 -19 -44 -43z" />
    <glyph glyph-name="mu" unicode="&#xb5;" horiz-adv-x="558" 
d="M248 -11c-33 0 -62 7 -87 19v-289h-96v753h104v-269c0 -85 48 -127 109 -127c57 0 117 47 120 122v274h103v-472h-103v31c0 11 1 25 2 39c-33 -47 -86 -81 -152 -81z" />
    <glyph glyph-name="mu" unicode="&#x3bc;" horiz-adv-x="558" 
d="M248 -11c-33 0 -62 7 -87 19v-289h-96v753h104v-269c0 -85 48 -127 109 -127c57 0 117 47 120 122v274h103v-472h-103v31c0 11 1 25 2 39c-33 -47 -86 -81 -152 -81z" />
    <glyph glyph-name="Ugrave" unicode="&#xd9;" horiz-adv-x="618" 
d="M310 88c68 0 124 54 124 141v471h107v-454c0 -182 -109 -256 -231 -256c-121 0 -230 74 -230 256v454h107v-471c0 -87 56 -141 123 -141zM213 869l58 62l150 -140l-57 -62z" />
    <glyph glyph-name="Uacute" unicode="&#xda;" horiz-adv-x="618" 
d="M310 88c68 0 124 54 124 141v471h107v-454c0 -182 -109 -256 -231 -256c-121 0 -230 74 -230 256v454h107v-471c0 -87 56 -141 123 -141zM349 931l58 -62l-151 -140l-57 62z" />
    <glyph glyph-name="Ucircumflex" unicode="&#xdb;" horiz-adv-x="618" 
d="M310 88c68 0 124 54 124 141v471h107v-454c0 -182 -109 -256 -231 -256c-121 0 -230 74 -230 256v454h107v-471c0 -87 56 -141 123 -141zM241 762l-63 63l98 99h71l99 -99l-62 -63l-49 56l-23 27l-24 -27c-16 -18 -31 -37 -47 -56z" />
    <glyph glyph-name="Yacute" unicode="&#xdd;" horiz-adv-x="549" 
d="M325 0h-106v348l-211 352h122l121 -210c11 -21 19 -40 21 -44c0 3 8 23 21 45l126 209h123l-217 -353v-347zM308 931l58 -62l-151 -140l-57 62z" />
    <glyph glyph-name="Eth" unicode="&#xd0;" horiz-adv-x="683" 
d="M309 0h-224v304h-65v96h65v300h195c222 0 361 -100 361 -341c0 -229 -137 -359 -332 -359zM307 95c139 0 227 99 227 265c0 182 -93 244 -254 244h-88v-204h138v-96h-138v-209h115z" />
    <glyph glyph-name="quoteleft" unicode="&#x2018;" horiz-adv-x="182" 
d="M94 627c37 -6 68 -24 68 -65c0 -34 -29 -65 -66 -65c-52 0 -75 40 -75 89c0 60 36 129 100 152l29 -47c-45 -25 -53 -57 -56 -64z" />
    <glyph glyph-name="quoteright" unicode="&#x2019;" horiz-adv-x="174" 
d="M84 577c-38 6 -68 24 -68 66c0 32 28 64 66 64c51 0 75 -41 75 -91c0 -60 -38 -129 -100 -150l-29 47c46 26 53 57 56 64z" />
    <glyph glyph-name="guilsinglleft" unicode="&#x2039;" horiz-adv-x="370" 
d="M329 197l-62 -63c-81 82 -162 162 -242 244l242 242l62 -63l-152 -151c-12 -12 -21 -22 -28 -28c4 -5 12 -12 23 -23z" />
    <glyph glyph-name="guilsinglright" unicode="&#x203a;" horiz-adv-x="368" 
d="M102 134l-62 63l180 181l-180 179l62 63l242 -242z" />
    <glyph glyph-name="bullet" unicode="&#x2022;" horiz-adv-x="286" 
d="M30 369c0 61 49 109 109 109s109 -48 109 -109c0 -60 -49 -109 -109 -109s-109 49 -109 109zM100 369c0 -20 18 -38 39 -38s38 18 38 38c0 21 -17 38 -38 38s-39 -17 -39 -38z" />
    <glyph glyph-name="emdash" unicode="&#x2014;" horiz-adv-x="563" 
d="M523 338h-483v84h483v-84z" />
    <glyph glyph-name="exclamdown" unicode="&#xa1;" horiz-adv-x="242" 
d="M72 477h97l5 -477h-107zM47 635c0 40 34 74 74 74c41 0 75 -34 75 -74c0 -41 -34 -75 -75 -75c-40 0 -74 34 -74 75z" />
    <glyph glyph-name="cent" unicode="&#xa2;" horiz-adv-x="464" 
d="M436 524c-23 -23 -47 -45 -70 -67c-28 31 -60 52 -106 52c-82 0 -137 -64 -137 -151c0 -90 57 -151 137 -151c48 0 86 24 111 60l76 -60c-38 -51 -87 -83 -147 -92v-115h-89v117c-113 22 -192 121 -192 241s79 219 192 241v101h89v-100c54 -9 100 -37 136 -76z" />
    <glyph glyph-name="degree" unicode="&#xb0;" horiz-adv-x="246" 
d="M11 601c0 60 48 109 109 109c60 0 109 -49 109 -109s-49 -109 -109 -109c-61 0 -109 49 -109 109zM81 601c0 -21 18 -38 39 -38c20 0 37 17 37 38s-17 38 -37 38c-21 0 -39 -17 -39 -38z" />
    <glyph glyph-name="onesuperior" unicode="&#xb9;" horiz-adv-x="290" 
d="M252 340h-222v79h66v179l-43 -21l-36 71l105 52h63v-281h67v-79z" />
    <glyph glyph-name="twosuperior" unicode="&#xb2;" horiz-adv-x="331" 
d="M31 340v69c56 22 172 100 172 183c0 27 -17 41 -38 41c-37 0 -48 -33 -39 -64l-80 -23c-4 11 -8 26 -8 44c0 72 56 119 128 119c62 0 123 -39 123 -118c0 -67 -46 -133 -122 -171h125v-80h-261z" />
    <glyph glyph-name="threesuperior" unicode="&#xb3;" horiz-adv-x="333" 
d="M163 330c-88 0 -132 55 -139 87c28 10 55 21 83 32c7 -22 26 -38 53 -38c30 0 48 19 48 43c0 23 -17 45 -49 45h-17v58c27 0 46 19 46 44c0 17 -10 28 -25 28s-26 -12 -27 -33h-89c0 78 60 114 119 114c69 0 109 -45 109 -102c0 -36 -19 -62 -43 -76
c42 -11 67 -46 67 -86c0 -68 -54 -116 -136 -116z" />
    <glyph glyph-name="periodcentered" unicode="&#xb7;" horiz-adv-x="235" 
d="M43 363c0 40 34 74 74 74c41 0 75 -34 75 -74c0 -41 -34 -75 -75 -75c-40 0 -74 34 -74 75z" />
    <glyph glyph-name="onequarter" unicode="&#xbc;" horiz-adv-x="709" 
d="M252 340h-222v79h66v179l-43 -21l-36 71l105 52h63v-281h67v-79zM681 76h-57v-76h-89v76h-152v52l174 236h67v-209h57v-79zM482 151h55v78zM115 0l374 700h105l-374 -700h-105z" />
    <glyph glyph-name="onehalf" unicode="&#xbd;" horiz-adv-x="480" 
d="M106 0l374 700h105l-374 -700h-105zM252 340h-222v79h66v179l-43 -21l-36 71l105 52h63v-281h67v-79zM391 0v69c56 22 172 100 172 183c0 27 -17 41 -38 41c-37 0 -48 -33 -39 -64l-80 -23c-4 11 -8 26 -8 44c0 72 56 119 128 119c62 0 123 -39 123 -118
c0 -67 -46 -133 -122 -171h125v-80h-261z" />
    <glyph glyph-name="threequarters" unicode="&#xbe;" horiz-adv-x="498" 
d="M651 76h-57v-76h-89v76h-152v52l174 236h67v-209h57v-79zM452 151h55v78zM118 0l374 700h105l-374 -700h-105zM157 330c-88 0 -132 55 -139 87c28 10 55 21 83 32c7 -22 26 -38 53 -38c30 0 48 19 48 43c0 23 -17 45 -49 45h-17v58c27 0 46 19 46 44c0 17 -10 28 -25 28
s-26 -12 -27 -33h-89c0 78 60 114 119 114c69 0 109 -45 109 -102c0 -36 -19 -62 -43 -76c42 -11 67 -46 67 -86c0 -68 -54 -116 -136 -116z" />
    <glyph glyph-name="questiondown" unicode="&#xbf;" horiz-adv-x="474" 
d="M320 635c0 -40 -34 -74 -74 -74c-41 0 -75 34 -75 74c0 41 34 75 75 75c40 0 74 -34 74 -75zM196 505h109c6 -98 -55 -159 -105 -212c-33 -34 -59 -71 -59 -110c0 -57 43 -92 98 -92c61 0 108 38 108 104c0 15 -5 43 -10 58l100 29s14 -26 14 -86
c0 -133 -107 -206 -212 -206c-121 0 -205 74 -205 192c0 67 35 116 74 156c46 47 93 93 88 167z" />
    <glyph glyph-name="Oslash" unicode="&#xd8;" horiz-adv-x="789" 
d="M395 -10c-199 0 -360 161 -360 360c0 197 161 359 360 359c197 0 359 -162 359 -359c0 -199 -162 -360 -359 -360zM395 90c143 0 250 111 250 260c0 87 -36 161 -95 207l-243 -453c27 -9 57 -14 88 -14zM144 350c0 -87 35 -160 92 -206l242 452c-26 8 -54 13 -83 13
c-145 0 -251 -111 -251 -259z" />
    <glyph glyph-name="Lslash" unicode="&#x141;" horiz-adv-x="464" 
d="M26 265l-25 83l75 22v330h106v-299l147 44l24 -83l-171 -51v-211h263v-100h-369v280z" />
    <glyph glyph-name="lslash" unicode="&#x142;" horiz-adv-x="190" 
d="M-4 280l-23 81l78 23v377h106v-346l30 9l24 -80l-54 -16v-317h-106v285z" />
    <glyph glyph-name="florin" unicode="&#x192;" horiz-adv-x="388" 
d="M-16 -201c-11 0 -22 2 -34 4l15 101c5 -1 10 -2 15 -2c40 0 61 28 67 76l49 399h-71c2 31 8 63 11 95h72l8 64c3 26 8 50 13 73c22 97 85 154 168 154c87 0 143 -48 165 -127l-92 -34c-12 47 -33 66 -67 66c-41 0 -70 -39 -76 -92l-13 -104h99c-3 -32 -7 -64 -11 -95
h-100l-45 -366c-15 -123 -59 -212 -173 -212z" />
    <glyph glyph-name="perthousand" unicode="&#x2030;" horiz-adv-x="666" 
d="M175 0h-111l480 700h111zM172 413c-81 0 -145 64 -145 144c0 81 64 145 145 145c80 0 144 -64 144 -145c0 -80 -64 -144 -144 -144zM172 494c35 0 64 28 64 63c0 36 -29 64 -64 64c-36 0 -64 -28 -64 -64c0 -35 28 -63 64 -63zM507 -3c-81 0 -145 64 -145 145
c0 80 64 144 145 144c80 0 144 -64 144 -144c0 -81 -64 -145 -144 -145zM507 78c35 0 64 28 64 64c0 35 -29 64 -64 64c-36 0 -64 -29 -64 -64c0 -36 28 -64 64 -64zM833 -3c-80 0 -144 64 -144 145c0 80 64 144 144 144c81 0 145 -64 145 -144c0 -81 -64 -145 -145 -145z
M833 78c35 0 64 28 64 64c0 35 -29 64 -64 64s-64 -29 -64 -64c0 -36 29 -64 64 -64z" />
    <glyph glyph-name="ordmasculine" unicode="&#xba;" horiz-adv-x="474" 
d="M226 326c-126 0 -188 96 -188 192s62 192 188 192c124 0 188 -96 188 -192s-63 -192 -188 -192zM226 625c-63 0 -95 -54 -95 -107c0 -54 32 -107 95 -107c62 0 94 53 94 107c0 53 -31 107 -94 107z" />
    <glyph glyph-name="paragraph" unicode="&#xb6;" horiz-adv-x="629" 
d="M567 0h-105v700h105v-700zM407 0h-106v298h-52c-117 0 -200 83 -200 200c0 113 83 202 200 202h158v-700z" />
    <glyph glyph-name="dagger" unicode="&#x2020;" horiz-adv-x="343" 
d="M53 385l-51 56c12 15 47 52 103 52c6 0 13 -1 19 -2v259h96v-294c7 -2 14 -3 22 -3c30 0 52 27 56 31c19 -17 36 -35 55 -52c-14 -21 -46 -60 -107 -60c-9 0 -18 1 -26 3v-495h-96v529c-6 1 -12 2 -17 2c-31 0 -49 -22 -54 -26z" />
    <glyph glyph-name="daggerdbl" unicode="&#x2021;" horiz-adv-x="361" 
d="M54 407l-51 56c12 15 47 52 103 52c9 0 19 -2 28 -4v239h96v-274c4 -1 8 -1 13 -1c30 0 52 27 56 31c19 -17 36 -35 55 -52c-14 -21 -46 -60 -107 -60c-6 0 -12 0 -17 1v-84c4 -1 8 -1 13 -1c30 0 52 27 56 31c19 -17 36 -35 55 -52c-14 -21 -46 -60 -107 -60
c-6 0 -12 0 -17 1v-350h-96v384c-9 2 -18 4 -26 4c-31 0 -49 -22 -54 -26l-51 56c12 15 47 52 103 52c9 0 19 -2 28 -4v83c-9 2 -18 4 -26 4c-31 0 -49 -22 -54 -26z" />
    <glyph glyph-name="ring" unicode="&#x2da;" horiz-adv-x="267" 
d="M92 751c0 -24 20 -45 44 -45s44 21 44 45s-20 43 -44 43s-44 -19 -44 -43zM26 751c0 61 49 110 110 110s111 -49 111 -110s-50 -111 -111 -111s-110 50 -110 111z" />
    <glyph glyph-name="Aring" unicode="&#xc5;" horiz-adv-x="585" 
d="M183 796c0 61 49 110 110 110s111 -49 111 -110c0 -41 -22 -77 -55 -96l226 -700h-113l-58 194h-222l-58 -194h-114l226 700h1c-32 19 -54 55 -54 96zM274 500l-63 -210h164l-63 212c-10 31 -17 64 -19 77c-2 -15 -10 -49 -19 -79zM249 796c0 -24 20 -45 44 -45
s44 21 44 45s-20 43 -44 43s-44 -19 -44 -43z" />
    <glyph glyph-name="AE" unicode="&#xc6;" horiz-adv-x="797" 
d="M94 0h-114l341 700h429v-96h-294v-195h206v-93h-206v-221h294v-95h-400v195h-164zM283 398l-56 -117h123v278c-13 -35 -33 -90 -67 -161z" />
    <glyph glyph-name="currency" unicode="&#xa4;" horiz-adv-x="508" 
d="M255 129c-41 0 -74 10 -102 26l-66 -67l-63 63l69 68c-17 30 -26 66 -26 102c0 34 8 68 23 97l-67 68l63 63l64 -65c28 18 63 29 105 29c41 0 75 -11 103 -28l64 64l63 -63l-67 -67c16 -30 25 -64 25 -98c0 -36 -9 -72 -27 -103l68 -67l-63 -63l-66 67
c-27 -17 -61 -26 -100 -26zM255 428c-63 0 -95 -54 -95 -107c0 -54 32 -107 95 -107c62 0 94 53 94 107c0 53 -31 107 -94 107z" />
    <glyph glyph-name="ordfeminine" unicode="&#xaa;" horiz-adv-x="427" 
d="M402 331h-19c-46 0 -83 25 -94 66c-24 -41 -65 -75 -132 -75c-82 0 -125 54 -125 111c0 62 51 126 159 126c39 0 63 -6 90 -19v17c0 43 -24 74 -73 74c-37 0 -65 -17 -83 -42l-63 48c13 16 60 72 148 72c89 0 158 -51 158 -150v-134c0 -16 10 -25 26 -25h8v-69zM181 391
c64 0 97 50 100 100c-17 4 -35 10 -70 10c-57 0 -85 -32 -85 -63c0 -23 19 -47 55 -47z" />
    <glyph glyph-name="eth" unicode="&#xf0;" horiz-adv-x="557" 
d="M252 532l-70 38l30 55c-24 12 -51 23 -80 31l38 92c32 -10 62 -22 90 -36l30 56l77 -46l-33 -56c120 -91 181 -231 181 -390c0 -148 -76 -285 -241 -285c-142 0 -237 111 -237 247c0 129 89 236 220 236c68 0 108 -28 143 -69l1 1c-13 42 -48 114 -120 173
c-9 -16 -19 -31 -29 -47zM276 82c87 0 135 68 135 154c0 85 -48 153 -136 153c-86 0 -134 -68 -134 -152c0 -86 51 -155 135 -155z" />
    <glyph glyph-name="divide" unicode="&#xf7;" horiz-adv-x="427" 
d="M30 338v79h367v-79h-367zM145 526c0 37 31 68 68 68s68 -31 68 -68s-31 -68 -68 -68s-68 31 -68 68zM145 230c0 37 31 68 68 68s68 -31 68 -68s-31 -68 -68 -68s-68 31 -68 68z" />
    <glyph glyph-name="agrave.alt" horiz-adv-x="559" 
d="M491 0h-100c0 32 1 54 2 69c-36 -50 -89 -79 -150 -79c-126 0 -209 107 -209 248c0 140 85 244 210 244c58 0 110 -23 146 -69c-1 5 -2 11 -2 18v41h103v-472zM265 81c77 0 124 67 124 155c0 92 -47 154 -124 154c-75 0 -128 -63 -128 -153s54 -156 128 -156zM142 655
l58 62l150 -140l-57 -62z" />
    <glyph glyph-name="aacute.alt" horiz-adv-x="559" 
d="M491 0h-100c0 32 1 54 2 69c-36 -50 -89 -79 -150 -79c-126 0 -209 107 -209 248c0 140 85 244 210 244c58 0 110 -23 146 -69c-1 5 -2 11 -2 18v41h103v-472zM265 81c77 0 124 67 124 155c0 92 -47 154 -124 154c-75 0 -128 -63 -128 -153s54 -156 128 -156zM309 717
l58 -62l-151 -140l-57 62z" />
    <glyph glyph-name="acircumflex.alt" horiz-adv-x="559" 
d="M491 0h-100c0 32 1 54 2 69c-36 -50 -89 -79 -150 -79c-126 0 -209 107 -209 248c0 140 85 244 210 244c58 0 110 -23 146 -69c-1 5 -2 11 -2 18v41h103v-472zM265 81c77 0 124 67 124 155c0 92 -47 154 -124 154c-75 0 -128 -63 -128 -153s54 -156 128 -156zM195 518
l-63 63l98 99h71l99 -99l-62 -63l-49 56l-23 27l-24 -27c-16 -18 -31 -37 -47 -56z" />
    <glyph glyph-name="atilde.alt" horiz-adv-x="559" 
d="M491 0h-100c0 32 1 54 2 69c-36 -50 -89 -79 -150 -79c-126 0 -209 107 -209 248c0 140 85 244 210 244c58 0 110 -23 146 -69c-1 5 -2 11 -2 18v41h103v-472zM265 81c77 0 124 67 124 155c0 92 -47 154 -124 154c-75 0 -128 -63 -128 -153s54 -156 128 -156zM152 547
l-51 56c12 15 47 52 103 52c48 0 93 -40 137 -40c30 0 52 27 56 31c19 -17 36 -35 55 -52c-14 -21 -46 -60 -107 -60c-53 0 -97 39 -139 39c-31 0 -49 -22 -54 -26z" />
    <glyph glyph-name="adieresis.alt" horiz-adv-x="559" 
d="M491 0h-100c0 32 1 54 2 69c-36 -50 -89 -79 -150 -79c-126 0 -209 107 -209 248c0 140 85 244 210 244c58 0 110 -23 146 -69c-1 5 -2 11 -2 18v41h103v-472zM265 81c77 0 124 67 124 155c0 92 -47 154 -124 154c-75 0 -128 -63 -128 -153s54 -156 128 -156zM124 598
c0 33 26 59 59 59c32 0 59 -26 59 -59s-27 -59 -59 -59c-33 0 -59 26 -59 59zM310 598c0 33 26 59 59 59c32 0 59 -26 59 -59s-27 -59 -59 -59c-33 0 -59 26 -59 59z" />
    <glyph glyph-name="aring.alt" horiz-adv-x="559" 
d="M491 0h-100c0 32 1 54 2 69c-36 -50 -89 -79 -150 -79c-126 0 -209 107 -209 248c0 140 85 244 210 244c58 0 110 -23 146 -69c-1 5 -2 11 -2 18v41h103v-472zM265 81c77 0 124 67 124 155c0 92 -47 154 -124 154c-75 0 -128 -63 -128 -153s54 -156 128 -156zM164 631
c0 61 49 110 110 110s111 -49 111 -110s-50 -111 -111 -111s-110 50 -110 111zM230 631c0 -24 20 -45 44 -45s44 21 44 45s-20 43 -44 43s-44 -19 -44 -43z" />
    <glyph glyph-name="ellipsis" unicode="&#x2026;" horiz-adv-x="685" 
d="M53 65c0 40 34 74 74 74c41 0 75 -34 75 -74c0 -41 -34 -75 -75 -75c-40 0 -74 34 -74 75zM258 65c0 40 34 74 74 74c41 0 75 -34 75 -74c0 -41 -34 -75 -75 -75c-40 0 -74 34 -74 75zM463 65c0 40 34 74 74 74c41 0 75 -34 75 -74c0 -41 -34 -75 -75 -75
c-40 0 -74 34 -74 75z" />
    <glyph glyph-name="quotedblbase" unicode="&#x201e;" horiz-adv-x="303" 
 />
    <glyph glyph-name="quotesinglbase" unicode="&#x201a;" horiz-adv-x="247" 
d="M120 -6c-40 0 -76 29 -76 72c0 38 32 73 75 73c57 0 84 -46 84 -102c0 -67 -44 -141 -112 -165c-11 18 -23 36 -33 54c50 27 58 62 62 68z" />
    <glyph glyph-name="A.small" unicode="&#x2423;" horiz-adv-x="534" 
d="M410 0l-40 111h-204l-39 -111h-112l196 543h113l198 -543h-112zM268 423c-5 -34 -15 -69 -39 -137l-32 -89h142l-31 89c-24 66 -35 103 -40 137z" />
    <glyph glyph-name="B.small" horiz-adv-x="516" 
d="M301 0h-221v543h215c85 0 127 -66 127 -131c0 -36 -14 -72 -40 -96c61 -28 95 -86 95 -150c0 -82 -56 -166 -176 -166zM295 253h-110v-161h109c43 0 78 31 78 86c0 43 -32 75 -77 75zM243 456h-58v-122h96c31 2 46 31 46 59c0 50 -32 63 -84 63z" />
    <glyph glyph-name="C.small" horiz-adv-x="569" 
d="M523 462l-73 -70c-33 36 -74 61 -130 61c-100 0 -172 -77 -172 -181c0 -106 73 -180 172 -180c61 0 109 31 141 75c27 -21 54 -41 80 -62c-53 -73 -126 -114 -221 -114c-160 0 -280 124 -280 281c0 156 120 281 279 281c83 0 153 -35 204 -91z" />
    <glyph glyph-name="D.small" horiz-adv-x="566" 
d="M80 0v543h156c182 0 279 -96 279 -265c0 -156 -69 -278 -249 -278h-186zM185 95h78c108 0 147 70 147 183c0 115 -56 170 -163 170h-62v-353z" />
    <glyph glyph-name="E.small" horiz-adv-x="509" 
d="M444 97v-97h-364v543h364v-97h-259v-113h198v-90h-198v-146h259z" />
    <glyph glyph-name="F.small" horiz-adv-x="463" 
d="M185 0h-105v544h364v-97h-259v-124h198v-96h-198v-227z" />
    <glyph glyph-name="G.small" horiz-adv-x="610" 
d="M548 101c-54 -73 -126 -111 -222 -111c-159 0 -280 125 -280 282c0 156 121 281 280 281c82 0 152 -35 204 -91l-73 -70c-34 36 -74 61 -130 61c-100 0 -172 -77 -172 -181c0 -106 72 -180 172 -180c51 0 92 19 124 52v76h-103v85h200v-204z" />
    <glyph glyph-name="H.small" horiz-adv-x="550" 
d="M470 0h-105v241h-180v-241h-105v543h105v-207h180v207h105v-543z" />
    <glyph glyph-name="I.small" horiz-adv-x="344" 
d="M289 0h-234v95h65v354h-65v95h234v-95h-64v-354h64v-95z" />
    <glyph glyph-name="J.small" horiz-adv-x="343" 
d="M20 2l32 95c12 -5 23 -8 36 -8c46 0 74 34 74 94v360h107v-349c0 -126 -64 -204 -178 -204c-25 0 -49 4 -71 12z" />
    <glyph glyph-name="K.small" horiz-adv-x="533" 
d="M521 0h-122l-135 216c-8 12 -14 26 -18 35l-60 -75v-176h-106v543h106v-182c0 -23 -2 -46 -2 -48c0 1 13 21 28 40l146 190h121l-168 -211z" />
    <glyph glyph-name="L.small" horiz-adv-x="452" 
d="M417 100v-100h-337v543h105v-443h232z" />
    <glyph glyph-name="M.small" horiz-adv-x="739" 
d="M618 543l79 -543h-114l-37 315c-4 37 -6 75 -6 82c-1 -9 -8 -44 -19 -77l-108 -320h-84l-109 320c-13 38 -21 75 -22 78c0 0 1 -40 -4 -83l-35 -315h-114l78 543h125l111 -320c7 -20 11 -51 11 -54c1 2 5 34 12 54l111 320h125z" />
    <glyph glyph-name="N.small" horiz-adv-x="556" 
d="M476 543v-543h-102v110l-171 228c-12 15 -24 36 -25 39c0 -1 3 -27 3 -47v-330h-101v543h103l170 -235c12 -16 22 -36 23 -38c0 1 -2 25 -2 45v228h102z" />
    <glyph glyph-name="O.small" horiz-adv-x="645" 
d="M323 -10c-158 0 -283 124 -283 283c0 158 125 280 283 280c157 0 283 -122 283 -280c0 -159 -126 -283 -283 -283zM323 88c103 0 177 79 177 185c0 105 -74 184 -177 184c-105 0 -178 -79 -178 -184c0 -107 75 -185 178 -185z" />
    <glyph glyph-name="P.small" horiz-adv-x="488" 
d="M186 0h-106v543h191c124 0 197 -71 197 -181c0 -112 -71 -185 -197 -185h-85v-177zM265 275c62 0 98 36 98 87c0 49 -37 83 -98 83h-79v-170h79z" />
    <glyph glyph-name="Q.small" horiz-adv-x="653" 
d="M323 -10c-158 0 -283 124 -283 283c0 158 125 280 283 280c157 0 283 -122 283 -280c0 -63 -20 -120 -53 -166l61 -61l-61 -60l-60 60c-48 -35 -106 -56 -170 -56zM323 88c37 0 71 10 99 29l-61 61l61 60l56 -57c14 27 22 58 22 92c0 105 -74 184 -177 184
c-105 0 -178 -79 -178 -184c0 -107 75 -185 178 -185z" />
    <glyph glyph-name="R.small" horiz-adv-x="530" 
d="M186 0h-106v543h191c124 0 197 -71 197 -181c0 -76 -33 -134 -94 -164l104 -198h-113l-89 177h-5h-85v-177zM265 275c62 0 98 36 98 87c0 49 -37 83 -98 83h-79v-170h79z" />
    <glyph glyph-name="S.small" horiz-adv-x="452" 
d="M42 119l94 37c15 -46 50 -69 89 -69c40 0 65 36 65 62c0 117 -220 79 -220 258c0 91 80 146 161 146c64 0 109 -24 146 -68l-74 -61c-18 24 -38 39 -70 39s-55 -22 -55 -52c0 -97 226 -65 226 -259c0 -88 -67 -162 -180 -162c-82 0 -159 42 -182 129z" />
    <glyph glyph-name="T.small" horiz-adv-x="404" 
d="M254 0h-105v448h-127v95h360v-95h-128v-448z" />
    <glyph glyph-name="U.small" horiz-adv-x="555" 
d="M277 88c59 0 101 39 101 121v334h108v-322c0 -167 -97 -231 -209 -231c-111 0 -208 64 -208 231v322h108v-334c0 -82 43 -121 100 -121z" />
    <glyph glyph-name="V.small" horiz-adv-x="512" 
d="M127 543l103 -326c16 -52 28 -107 28 -107s11 55 27 107l101 326h112l-185 -543h-114l-184 543h112z" />
    <glyph glyph-name="W.small" horiz-adv-x="770" 
d="M749 543l-200 -543h-109l-38 108c-11 30 -17 60 -17 63c-1 -2 -7 -32 -17 -63l-40 -109h-106l-202 544h112l131 -359c10 -28 17 -61 19 -67c1 5 9 38 18 66l31 89l-101 271h102l36 -99c12 -33 18 -66 18 -69c1 3 7 36 19 69l36 99h100l-101 -271l33 -88
c12 -31 18 -66 18 -67c1 2 8 37 19 67l130 359h109z" />
    <glyph glyph-name="X.small" horiz-adv-x="448" 
d="M286 275l145 -275h-114l-75 146c-11 20 -18 38 -19 44c-2 -6 -9 -23 -19 -44l-71 -146h-114l141 275l-140 268h116l68 -137c12 -23 18 -42 19 -44c0 1 7 20 19 44l68 137h116z" />
    <glyph glyph-name="Y.small" horiz-adv-x="469" 
d="M286 0h-106v251l-171 292h120l83 -150c12 -22 20 -42 21 -44c0 1 9 21 21 44l85 150h121l-174 -293v-250z" />
    <glyph glyph-name="Z.small" horiz-adv-x="458" 
d="M416 0h-370v83l210 323c17 27 29 43 29 43s-26 -2 -45 -2h-185v96h353v-83l-215 -336c-12 -18 -21 -30 -21 -30s17 2 35 2h209v-96z" />
    <glyph glyph-name="one.oldstyle" horiz-adv-x="395" 
d="M355 0h-296v95h95v333l-74 -38l-41 85l140 68h81v-448h95v-95z" />
    <glyph glyph-name="two.oldstyle" horiz-adv-x="542" 
d="M480 0h-425v84c102 36 303 151 303 278c0 56 -30 93 -87 93c-56 0 -91 -40 -91 -99c0 -16 2 -33 8 -51l-100 -29c-10 28 -15 56 -15 83c0 109 82 194 200 194c134 0 194 -83 194 -184c0 -125 -116 -218 -210 -266h223v-103z" />
    <glyph glyph-name="three.oldstyle" horiz-adv-x="485" 
d="M225 -118c-152 0 -201 100 -208 130l91 45c16 -42 56 -79 116 -79c68 0 109 46 109 110c0 59 -40 109 -119 109h-21v82c65 0 102 40 102 96c0 41 -29 76 -70 76c-37 0 -69 -27 -70 -75h-104c0 115 88 173 175 173c88 0 175 -58 175 -165c0 -58 -24 -105 -73 -134
c69 -23 116 -71 116 -164c0 -122 -84 -204 -219 -204z" />
    <glyph glyph-name="four.oldstyle" horiz-adv-x="525" 
d="M391 -112h-106v143h-265v74l287 438h84v-420h93v-92h-93v-143zM136 123h149v227z" />
    <glyph glyph-name="five.oldstyle" horiz-adv-x="541" 
d="M434 443h-259v-142c23 14 57 27 105 27c151 0 226 -107 226 -214c0 -114 -81 -232 -241 -232c-143 0 -202 90 -219 124l89 53c18 -36 59 -79 128 -79c87 0 132 68 132 133c0 60 -42 126 -127 126c-66 0 -98 -38 -106 -50l-80 46v308h352v-100z" />
    <glyph glyph-name="six.oldstyle" horiz-adv-x="554" 
d="M284 -10c-148 0 -227 118 -227 265c0 178 89 352 292 405l34 -92c-172 -48 -214 -189 -214 -189l1 -1c35 41 77 61 137 61c126 0 197 -107 197 -217c0 -117 -81 -232 -220 -232zM282 80c74 0 118 67 118 139c0 71 -41 136 -117 136c-80 0 -122 -67 -122 -139
c0 -71 43 -136 121 -136z" />
    <glyph glyph-name="seven.oldstyle" horiz-adv-x="479" 
d="M268 -113h-109c0 267 110 460 162 553h-289v103h406v-82s-175 -241 -170 -574z" />
    <glyph glyph-name="eight.oldstyle" horiz-adv-x="517" 
d="M259 -10c-146 0 -216 97 -216 194c0 85 46 144 109 174c-44 29 -71 77 -71 135c0 84 59 169 178 169c118 0 178 -84 178 -169c0 -59 -27 -107 -72 -136c63 -30 108 -88 108 -172c0 -97 -69 -195 -214 -195zM259 80c75 0 112 54 112 112c0 59 -37 113 -112 113
c-76 0 -114 -54 -114 -113c0 -58 38 -112 114 -112zM259 397c53 0 82 44 82 90c0 47 -28 88 -82 88c-55 0 -83 -41 -83 -88c0 -46 29 -90 83 -90z" />
    <glyph glyph-name="nine.oldstyle" horiz-adv-x="553" 
d="M269 553c148 0 227 -118 227 -265c0 -178 -89 -352 -292 -405l-34 93c172 47 214 188 214 188l-1 1c-35 -41 -77 -61 -137 -61c-126 0 -197 107 -197 217c0 117 81 232 220 232zM271 463c-74 0 -118 -67 -118 -139c0 -71 41 -136 117 -136c80 0 122 67 122 139
c0 71 -43 136 -121 136z" />
    <glyph glyph-name="zero.oldstyle" horiz-adv-x="614" 
d="M308 -10c-158 0 -283 124 -283 283c0 158 125 280 283 280c157 0 283 -122 283 -280c0 -159 -126 -283 -283 -283zM308 88c103 0 177 79 177 185c0 105 -74 184 -177 184c-105 0 -178 -79 -178 -184c0 -107 75 -185 178 -185z" />
    <glyph glyph-name="Agrave.small" horiz-adv-x="536" 
d="M410 0l-40 111h-204l-39 -111h-112l196 543h113l198 -543h-112zM124 710l58 62l150 -140l-57 -62zM268 423c-5 -34 -15 -69 -39 -137l-32 -89h142l-31 89c-24 66 -35 103 -40 137z" />
    <glyph glyph-name="Aacute.small" horiz-adv-x="536" 
d="M410 0l-40 111h-204l-39 -111h-112l196 543h113l198 -543h-112zM333 767l58 -62l-151 -140l-57 62zM268 423c-5 -34 -15 -69 -39 -137l-32 -89h142l-31 89c-24 66 -35 103 -40 137z" />
    <glyph glyph-name="Acircumflex.small" horiz-adv-x="536" 
d="M410 0l-40 111h-204l-39 -111h-112l196 543h113l198 -543h-112zM196 578l-63 63l98 99h71l99 -99l-62 -63l-49 56l-23 27l-24 -27c-16 -18 -31 -37 -47 -56zM268 423c-5 -34 -15 -69 -39 -137l-32 -89h142l-31 89c-24 66 -35 103 -40 137z" />
    <glyph glyph-name="Atilde.small" horiz-adv-x="537" 
d="M410 0l-40 111h-204l-39 -111h-112l196 543h113l198 -543h-112zM148 612l-51 56c12 15 47 52 103 52c48 0 93 -40 137 -40c30 0 52 27 56 31c19 -17 36 -35 55 -52c-14 -21 -46 -60 -107 -60c-53 0 -97 39 -139 39c-31 0 -49 -22 -54 -26zM268 423
c-5 -34 -15 -69 -39 -137l-32 -89h142l-31 89c-24 66 -35 103 -40 137z" />
    <glyph glyph-name="Adieresis.small" horiz-adv-x="536" 
d="M410 0l-40 111h-204l-39 -111h-112l196 543h113l198 -543h-112zM268 423c-5 -34 -15 -69 -39 -137l-32 -89h142l-31 89c-24 66 -35 103 -40 137zM115 653c0 33 26 59 59 59c32 0 59 -26 59 -59s-27 -59 -59 -59c-33 0 -59 26 -59 59zM301 653c0 33 26 59 59 59
c32 0 59 -26 59 -59s-27 -59 -59 -59c-33 0 -59 26 -59 59z" />
    <glyph glyph-name="Aring.small" horiz-adv-x="536" 
d="M410 0l-40 111h-204l-39 -111h-112l196 543h113l198 -543h-112zM157 691c0 61 49 110 110 110s111 -49 111 -110s-50 -111 -111 -111s-110 50 -110 111zM268 423c-5 -34 -15 -69 -39 -137l-32 -89h142l-31 89c-24 66 -35 103 -40 137zM223 691c0 -24 20 -45 44 -45
s44 21 44 45s-20 43 -44 43s-44 -19 -44 -43z" />
    <glyph glyph-name="AE.small" horiz-adv-x="779" 
d="M114 0h-120l315 543h408v-97h-259v-113h198v-90h-198v-146h259v-97h-364v115h-175zM300 332l-71 -127h124v238c-19 -44 -41 -89 -53 -111z" />
    <glyph glyph-name="Ccedilla.small" horiz-adv-x="569" 
d="M215 -191l56 38c3 -3 13 -19 34 -19c23 0 34 17 34 34c0 16 -11 34 -33 34c-13 0 -23 -6 -30 -20l-50 22v108c-111 38 -186 141 -186 266c0 156 120 281 279 281c83 0 153 -35 204 -91l-73 -70c-33 36 -74 61 -130 61c-100 0 -172 -77 -172 -181c0 -106 73 -180 172 -180
c61 0 109 31 141 75c27 -21 54 -41 80 -62c-53 -73 -126 -114 -221 -114c-11 0 -22 1 -32 2v-52c7 5 21 12 37 12c60 0 90 -45 90 -94c0 -50 -35 -101 -105 -101c-54 0 -85 37 -95 51z" />
    <glyph glyph-name="Egrave.small" horiz-adv-x="509" 
d="M150 710l58 62l150 -140l-57 -62zM444 97v-97h-364v543h364v-97h-259v-113h198v-90h-198v-146h259z" />
    <glyph glyph-name="Eacute.small" horiz-adv-x="509" 
d="M301 772l58 -62l-151 -140l-57 62zM444 97v-97h-364v543h364v-97h-259v-113h198v-90h-198v-146h259z" />
    <glyph glyph-name="Ecircumflex.small" horiz-adv-x="509" 
d="M444 97v-97h-364v543h364v-97h-259v-113h198v-90h-198v-146h259zM188 593l-63 63l98 99h71l99 -99l-62 -63l-49 56l-23 27l-24 -27c-16 -18 -31 -37 -47 -56z" />
    <glyph glyph-name="Edieresis.small" horiz-adv-x="509" 
d="M444 97v-97h-364v543h364v-97h-259v-113h198v-90h-198v-146h259zM110 663c0 33 26 59 59 59c32 0 59 -26 59 -59s-27 -59 -59 -59c-33 0 -59 26 -59 59zM296 663c0 33 26 59 59 59c32 0 59 -26 59 -59s-27 -59 -59 -59c-33 0 -59 26 -59 59z" />
    <glyph glyph-name="Igrave.small" horiz-adv-x="344" 
d="M55 715l58 62l150 -140l-57 -62zM289 0h-234v95h65v354h-65v95h234v-95h-64v-354h64v-95z" />
    <glyph glyph-name="Iacute.small" horiz-adv-x="344" 
d="M213 777l58 -62l-151 -140l-57 62zM289 0h-234v95h65v354h-65v95h234v-95h-64v-354h64v-95z" />
    <glyph glyph-name="Icircumflex.small" horiz-adv-x="353" 
d="M294 0h-234v95h65v354h-65v95h234v-95h-64v-354h64v-95zM106 588l-63 63l98 99h71l99 -99l-62 -63l-49 56l-23 27l-24 -27c-16 -18 -31 -37 -47 -56z" />
    <glyph glyph-name="Idieresis.small" horiz-adv-x="371" 
d="M302 0h-234v95h65v354h-65v95h234v-95h-64v-354h64v-95zM34 663c0 33 26 59 59 59c32 0 59 -26 59 -59s-27 -59 -59 -59c-33 0 -59 26 -59 59zM220 663c0 33 26 59 59 59c32 0 59 -26 59 -59s-27 -59 -59 -59c-33 0 -59 26 -59 59z" />
    <glyph glyph-name="Eth.small" horiz-adv-x="568" 
d="M82 0v236h-52v84h52v223h156c182 0 279 -96 279 -265c0 -156 -69 -278 -249 -278h-186zM187 95h78c108 0 147 70 147 183c0 115 -56 170 -163 170h-62v-128h111v-84h-111v-141z" />
    <glyph glyph-name="Ntilde.small" horiz-adv-x="556" 
d="M476 543v-543h-102v110l-171 228c-12 15 -24 36 -25 39c0 -1 3 -27 3 -47v-330h-101v543h103l170 -235c11 -15 21 -34 23 -38c0 3 -2 25 -2 45v228h102zM157 617l-51 56c12 15 47 52 103 52c48 0 93 -40 137 -40c30 0 52 27 56 31c19 -17 36 -35 55 -52
c-14 -21 -46 -60 -107 -60c-53 0 -97 39 -139 39c-31 0 -49 -22 -54 -26z" />
    <glyph glyph-name="Ograve.small" horiz-adv-x="645" 
d="M208 720l58 62l150 -140l-57 -62zM323 -10c-158 0 -283 124 -283 283c0 158 125 280 283 280c157 0 283 -122 283 -280c0 -159 -126 -283 -283 -283zM323 88c103 0 177 79 177 185c0 105 -74 184 -177 184c-105 0 -178 -79 -178 -184c0 -107 75 -185 178 -185z" />
    <glyph glyph-name="Oacute.small" horiz-adv-x="645" 
d="M361 782l58 -62l-151 -140l-57 62zM323 -10c-158 0 -283 124 -283 283c0 158 125 280 283 280c157 0 283 -122 283 -280c0 -159 -126 -283 -283 -283zM323 88c103 0 177 79 177 185c0 105 -74 184 -177 184c-105 0 -178 -79 -178 -184c0 -107 75 -185 178 -185z" />
    <glyph glyph-name="Otilde.small" horiz-adv-x="645" 
d="M199 614l-51 56c12 15 47 52 103 52c48 0 93 -40 137 -40c30 0 52 27 56 31c19 -17 36 -35 55 -52c-14 -21 -46 -60 -107 -60c-53 0 -97 39 -139 39c-31 0 -49 -22 -54 -26zM323 -10c-158 0 -283 124 -283 283c0 158 125 280 283 280c157 0 283 -122 283 -280
c0 -159 -126 -283 -283 -283zM323 88c103 0 177 79 177 185c0 105 -74 184 -177 184c-105 0 -178 -79 -178 -184c0 -107 75 -185 178 -185z" />
    <glyph glyph-name="Odieresis.small" horiz-adv-x="645" 
d="M323 -10c-158 0 -283 124 -283 283c0 158 125 280 283 280c157 0 283 -122 283 -280c0 -159 -126 -283 -283 -283zM323 88c103 0 177 79 177 185c0 105 -74 184 -177 184c-105 0 -178 -79 -178 -184c0 -107 75 -185 178 -185zM173 653c0 33 26 59 59 59
c32 0 59 -26 59 -59s-27 -59 -59 -59c-33 0 -59 26 -59 59zM359 653c0 33 26 59 59 59c32 0 59 -26 59 -59s-27 -59 -59 -59c-33 0 -59 26 -59 59z" />
    <glyph glyph-name="Oslash.small" horiz-adv-x="645" 
d="M323 -10c-158 0 -283 124 -283 283c0 158 125 280 283 280c157 0 283 -122 283 -280c0 -159 -126 -283 -283 -283zM145 273c0 -59 22 -109 59 -142l170 319c-16 4 -33 7 -51 7c-105 0 -178 -79 -178 -184zM323 88c103 0 177 79 177 185c0 56 -22 105 -57 138l-170 -317
c16 -4 32 -6 50 -6z" />
    <glyph glyph-name="Ugrave.small" horiz-adv-x="555" 
d="M173 710l58 62l150 -140l-57 -62zM277 88c59 0 101 39 101 121v334h108v-322c0 -167 -97 -231 -209 -231c-111 0 -208 64 -208 231v322h108v-334c0 -82 43 -121 100 -121z" />
    <glyph glyph-name="Uacute.small" horiz-adv-x="555" 
d="M319 777l58 -62l-151 -140l-57 62zM277 88c59 0 101 39 101 121v334h108v-322c0 -167 -97 -231 -209 -231c-111 0 -208 64 -208 231v322h108v-334c0 -82 43 -121 100 -121z" />
    <glyph glyph-name="Ucircumflex.small" horiz-adv-x="555" 
d="M277 88c59 0 101 39 101 121v334h108v-322c0 -167 -97 -231 -209 -231c-111 0 -208 64 -208 231v322h108v-334c0 -82 43 -121 100 -121zM207 578l-63 63l98 99h71l99 -99l-62 -63l-49 56l-23 27l-24 -27c-16 -18 -31 -37 -47 -56z" />
    <glyph glyph-name="Udieresis.small" horiz-adv-x="555" 
d="M277 88c59 0 101 39 101 121v334h108v-322c0 -167 -97 -231 -209 -231c-111 0 -208 64 -208 231v322h108v-334c0 -82 43 -121 100 -121zM127 653c0 33 26 59 59 59c32 0 59 -26 59 -59s-27 -59 -59 -59c-33 0 -59 26 -59 59zM313 653c0 33 26 59 59 59
c32 0 59 -26 59 -59s-27 -59 -59 -59c-33 0 -59 26 -59 59z" />
    <glyph glyph-name="Yacute.small" horiz-adv-x="469" 
d="M261 777l58 -62l-151 -140l-57 62zM286 0h-106v251l-171 292h120l83 -150c12 -22 20 -42 21 -44c0 1 9 21 21 44l85 150h121l-174 -293v-250z" />
    <glyph glyph-name="Thorn.small" horiz-adv-x="500" 
d="M186 0h-106v543h106v-85h85c124 0 197 -71 197 -181c0 -112 -71 -185 -197 -185h-85v-92zM265 190c62 0 98 36 98 87c0 49 -37 83 -98 83h-79v-170h79z" />
    <glyph glyph-name="logicalnot" unicode="&#xac;" horiz-adv-x="441" 
d="M40 330v95h363v-196h-90v101h-273z" />
    <glyph glyph-name="g.alt" horiz-adv-x="573" 
d="M256 -9c-126 0 -210 106 -210 247c0 140 87 243 212 243c66 0 110 -27 139 -65v56h105v-513c0 -136 -92 -231 -213 -231c-92 0 -166 39 -208 120l84 51c27 -53 68 -79 121 -79c64 0 114 49 114 140v106c-29 -44 -75 -75 -144 -75zM279 81c77 0 122 67 122 155
c0 92 -45 154 -122 154c-75 0 -130 -63 -130 -153s52 -156 130 -156z" />
    <glyph glyph-name="Ocircumflex.small" horiz-adv-x="645" 
d="M323 -10c-158 0 -283 124 -283 283c0 158 125 280 283 280c157 0 283 -122 283 -280c0 -159 -126 -283 -283 -283zM323 88c103 0 177 79 177 185c0 105 -74 184 -177 184c-105 0 -178 -79 -178 -184c0 -107 75 -185 178 -185zM252 588l-63 63l98 99h71l99 -99l-62 -63
l-49 56l-23 27l-24 -27c-16 -18 -31 -37 -47 -56z" />
    <glyph glyph-name="Lslash.small" horiz-adv-x="478" 
d="M36 215l-25 83l79 23v222h105v-191l144 43l24 -83l-168 -50v-162h232v-100h-337v231z" />
    <glyph glyph-name="Zcaron.small" horiz-adv-x="458" 
d="M98 704l63 63c23 -27 50 -62 71 -83c2 3 9 9 17 19l55 64l63 -63l-100 -99h-71c-32 34 -66 66 -98 99zM416 0h-370v83l210 323c17 27 29 43 29 43s-26 -2 -45 -2h-185v96h353v-83l-215 -336c-12 -18 -21 -30 -21 -30s17 2 35 2h209v-96z" />
    <glyph glyph-name="OE.small" horiz-adv-x="768" 
d="M716 97v-97h-430c-164 0 -248 125 -248 269c0 153 89 274 273 274h405v-97h-259v-113h198v-90h-198v-146h259zM289 95h63v353h-47c-105 0 -161 -77 -161 -175c0 -94 43 -176 145 -178z" />
    <glyph glyph-name="parenleft.lower" horiz-adv-x="274" 
d="M161 -107c-90 110 -132 264 -132 429c0 157 43 308 131 411l81 -50c-72 -93 -107 -228 -107 -371s36 -280 107 -372c-26 -16 -54 -32 -80 -47z" />
    <glyph glyph-name="parenright.lower" horiz-adv-x="274" 
d="M107 -107c-26 15 -54 31 -80 47c71 92 106 228 106 369c0 145 -34 280 -106 374l81 50c89 -105 132 -257 132 -418c0 -160 -44 -314 -133 -422z" />
    <glyph glyph-name="parenleft.small" horiz-adv-x="274" 
d="M164 -121c-91 104 -135 250 -135 396c0 143 44 285 134 384l80 -51c-71 -88 -108 -204 -108 -335c0 -136 35 -255 108 -346z" />
    <glyph glyph-name="parenright.small" horiz-adv-x="274" 
d="M106 -121l-80 48c71 89 108 210 108 340c0 136 -36 252 -108 341l80 51c90 -100 135 -244 135 -388s-45 -289 -135 -392z" />
    <glyph glyph-name="numbersign.small" horiz-adv-x="592" 
d="M242 0h-89v138h-102v89h102v106h-102v89h102v121h89v-121h108v121h89v-121h98v-89h-98v-106h98v-89h-98v-138h-89v138h-108v-138zM242 333v-106h108v106h-108z" />
    <glyph glyph-name="dollar.small" horiz-adv-x="452" 
d="M42 119l94 37c15 -46 50 -69 89 -69c40 0 65 36 65 62c0 109 -229 90 -229 258c0 74 54 125 118 140v65h91v-65c40 -9 71 -30 98 -62l-74 -61c-18 24 -38 39 -70 39s-55 -22 -55 -52c0 -88 235 -80 235 -259c0 -76 -50 -141 -136 -157v-71h-91v71
c-63 13 -117 54 -135 124z" />
    <glyph glyph-name="percent.small" horiz-adv-x="611" 
d="M175 0h-111l367 543h111zM454 -10c-68 0 -122 53 -122 121s54 122 122 122c67 0 121 -54 121 -122s-54 -121 -121 -121zM454 61c27 0 50 22 50 50s-23 50 -50 50c-28 0 -51 -22 -51 -50s23 -50 51 -50zM152 310c-68 0 -121 54 -121 121c0 69 53 122 121 122
s121 -53 121 -122c0 -67 -53 -121 -121 -121zM152 382c28 0 50 22 50 49c0 28 -22 51 -50 51s-50 -23 -50 -51c0 -27 22 -49 50 -49z" />
    <glyph glyph-name="Euro.small" horiz-adv-x="626" 
d="M567 462l-68 -66c-35 38 -77 64 -135 64c-70 0 -127 -38 -156 -95h230v-68h-250c-1 -8 -1 -17 -1 -25c0 -10 0 -20 1 -29h250v-68h-228c29 -56 85 -90 154 -90c63 0 112 33 146 79c25 -20 50 -40 75 -59c-54 -73 -126 -114 -222 -114c-125 0 -226 76 -264 184h-68v68h53
c-1 9 -1 19 -1 29c0 8 0 16 1 25h-53v68h67c37 110 139 188 265 188c82 0 152 -35 204 -91z" />
    <glyph glyph-name="sterling.small" horiz-adv-x="480" 
d="M449 90v-90h-418v90h40c5 17 7 35 7 54c0 14 -2 30 -4 47h-44v70h37c-2 22 -3 47 -3 76c0 147 76 216 189 216c110 0 184 -67 184 -184c0 -22 -3 -45 -9 -70l-101 25c19 60 -1 127 -75 127c-52 0 -84 -41 -84 -97c0 -33 1 -64 2 -93c48 0 96 -1 144 -1v-70
c-47 0 -94 1 -141 1c0 -9 1 -17 1 -25c0 -29 -2 -55 -9 -76h284z" />
    <glyph glyph-name="cent.small" horiz-adv-x="431" 
d="M388 414l-66 -62c-23 26 -48 43 -86 43c-66 0 -112 -52 -112 -123c0 -73 47 -122 112 -122c40 0 70 19 90 48l71 -55c-32 -43 -72 -70 -121 -80v-63h-89v65c-93 22 -157 107 -157 207c0 101 64 184 157 205v67h89v-65c44 -8 81 -32 112 -65z" />
    <glyph glyph-name="yen.small" horiz-adv-x="521" 
d="M314 0h-106v98h-118v79h118v51h-118v79h99l-144 236h122l94 -181c11 26 26 52 42 81l53 100h123l-146 -236h92v-79h-111v-51h111v-79h-111v-98z" />
    <glyph glyph-name="Scaron.small" horiz-adv-x="452" 
d="M86 689l63 63c23 -27 50 -62 71 -83c2 3 9 9 17 19l55 64l63 -63l-100 -99h-71c-32 34 -66 66 -98 99zM42 119l94 37c15 -46 50 -69 89 -69c40 0 65 36 65 62c0 109 -229 90 -229 258c0 91 80 146 161 146c64 0 109 -24 146 -68l-74 -61c-18 24 -38 39 -70 39
s-55 -22 -55 -52c0 -88 235 -80 235 -259c0 -88 -67 -162 -180 -162c-82 0 -159 42 -182 129z" />
    <glyph glyph-name="M.alt" horiz-adv-x="830" 
d="M207 0h-107v700h107l206 -308l210 308h107v-700h-107v510l-210 -305l-206 303v-508z" />
    <glyph glyph-name="M.small.alt" horiz-adv-x="707" 
d="M187 0h-107v543h107l164 -246l168 246h108v-543h-107v357l-169 -243l-164 242v-356z" />
    <glyph glyph-name="W" unicode="W" horiz-adv-x="917" 
d="M545 0l-72 193c-9 21 -13 50 -14 55c-1 -3 -8 -33 -16 -55l-71 -193h-100l-262 700h107l192 -516c11 -30 17 -54 19 -67c3 13 8 37 19 67l59 163l-133 353h103l63 -172c12 -33 19 -63 21 -74c1 11 8 41 20 74l63 172h102c-45 -118 -88 -235 -133 -353l62 -163
c11 -30 16 -54 19 -67c1 13 8 36 19 67l190 516h106l-263 -700h-100z" />
    <glyph glyph-name="N" unicode="N" horiz-adv-x="642" 
d="M552 700v-700h-103v171l-236 323c-12 15 -24 36 -25 39c0 -1 3 -27 3 -47v-486h-101v700h103l236 -331c10 -15 20 -33 22 -37c0 1 -2 25 -2 44v324h103z" />
    <glyph glyph-name="uni00A0" unicode="&#xa0;" horiz-adv-x="300" 
 />
    </font>
</defs>
</svg>
